<svg height="500" viewBox="0 0 500 500" width="500" xmlns="http://www.w3.org/2000/svg" xmlns:xlink="http://www.w3.org/1999/xlink"><mask id="a" fill="#fff"><path d="m.10691943.47373333h374.23252857v373.41940967h-374.23252857z" fill="#fff" fill-rule="evenodd"/></mask><g fill="none" fill-rule="evenodd"><path d="m0 0h500v500h-500z" fill="#f7f7fa"/><path d="m0 0h500v500h-500z" fill="#31b7c1"/><g fill="#fff" transform="translate(62 63)"><path d="m187.848531 24.0830164c-90.1437727-.2788069-163.4423888 72.5283074-163.7211723 162.6177836-.2771976 90.091257 72.5705749 163.348952 162.7143473 163.624032 90.141991.280578 163.440607-72.526537 163.720493-162.616013 0-.105076 0-.210152 0-.315229.105024-89.96659-72.694635-163.0337233-162.713668-163.3105736zm9.007962-23.60928307c4.157384.56634286 8.314768 1.19501905 12.598673 1.63491429 33.303621 3.63670476 64.933952 16.47737138 91.34127 37.08299048 36.91037 27.4961238 61.938427 68.0234759 69.985896 113.3237809 10.503052 52.208619-2.514389 106.390533-35.589915 148.139619-26.786881 35.54781-65.662787 60.071524-109.296607 68.940667-8.56781 1.887809-17.449251 2.325924-26.141801 3.46039l-6.299336.943905h-12.598673c-.564891-.270705-1.15473-.482638-1.764171-.626895-8.756701-.945686-17.638142-1.260915-26.268322-2.959943-45.116436-8.146076-85.5569288-32.846105-113.3898388-69.252333-20.9811564-26.53441-34.07878668-58.431267-37.79601891-92.046743-.44193365-4.156743-1.0709763-8.309924-1.63764929-12.589553v-18.509438c0-1.638476.69319431-3.211057.94445498-4.849533 1.13512796-8.309924 1.70001895-16.808629 3.52834123-25.182667 9.13804739-43.528257 33.75802839-82.269314 69.29270139-109.0423712 26.6710524-20.6465809 58.5989764-33.40710475 92.1609854-36.83187618 4.157384-.43989524 8.314768-1.06857143 12.598673-1.63491429h18.457858z" mask="url(#a)" transform="translate(.5)"/><path d="m169.501877 168.619787 89.393709 60.558461-57.938983-129.434531h-1.06955zm-20.446017-10.144773 10.442791-24.514304c8.179118-18.902683 16.418744-37.8089305 24.533797-56.7133955.605069-2.1212931 2.662306-3.4831989 4.845896-3.2122438h23.40196c2.318841-.2816507 4.500651 1.1586895 5.15733 3.4011993 16.778227 37.810713 33.700602 75.724816 50.770686 113.74231 9.184602 20.546239 18.369204 41.063956 27.555586 61.569195 1.25641 1.800426.866674 4.280021-.88091 5.606275-5.913667 5.608057-11.576407 11.533417-17.678713 17.64595l-16.105532-12.602977c-33.597385-26.173904-68.654055-50.408341-104.997389-72.596354-16.224766-9.968295-33.641875-17.845601-51.838456-23.44118-3.664231-1.085603-7.4423574-1.741599-11.2596354-1.953729-3.4097457-.670257-6.7180533 1.554427-7.3871892 4.969887-.2224521 1.140863-.1281324 2.322727.2776203 3.413677.7776925 4.132065 2.0020688 8.16787 3.6482143 12.034328 7.1807536 15.408788 16.269256 29.846059 27.051954 42.976685l14.847343-32.263264c3.395509 7.62596 6.290945 14.681488 9.625947 21.487452 2.356213 4.117804 2.356213 9.176821 0 13.296408-2.83137 5.543883-5.159109 11.405069-7.6132 17.202082-.544563 2.007207-2.466549 3.3192-4.529125 3.091027-7.80184 0-15.6019 0-23.40374 0-1.445049.016044-2.843828-.522301-3.90092-1.515209-13.0107782-15.804525-24.0194874-33.159911-32.7752019-51.670422-3.9614269-8.470911-6.1058651-17.683384-6.2909453-27.0349-.9698911-16.050524 11.2347207-29.846059 27.2548307-30.819358 1.1905636-.069522 2.3829069-.069522 3.5716909.003565 13.6710156.732648 27.0501746 4.247934 39.3188526 10.33551 5.157329 2.140902 10.442791 4.725671 16.356458 7.561786z"/></g></g></svg>