<svg height="500" viewBox="0 0 500 500" width="500" xmlns="http://www.w3.org/2000/svg" xmlns:xlink="http://www.w3.org/1999/xlink"><mask id="a" fill="#fff"><path d="m.2918543.03024007h128.8609467v371.78892693h-128.8609467z" fill="#fff" fill-rule="evenodd"/></mask><g fill="none" fill-rule="evenodd"><path d="m0 0h500v500h-500z" fill="#fff"/><path d="m0 0h500v500h-500z" fill="#fff"/><g transform="translate(96 64)"><g fill="#7ebc42"><path d="m255 284.892221c0 6.686521-5.387716 12.107779-12.032866 12.107779h-176.9282517c-6.6451502 0-12.0388823-5.421258-12.0388823-12.107779v-158.784442c0-6.686521 5.3937321-12.107779 12.0388823-12.107779h176.9282517c6.64515 0 12.032866 5.421258 12.032866 12.107779z"/><path d="m54 197h201v-83h-201z"/><path d="m309 225.442205c0 11.906904-9.627361 21.557795-21.50151 21.557795-11.874148 0-21.49849-9.650891-21.49849-21.557795v-96.881381c0-11.906905 9.624342-21.560824 21.49849-21.560824 11.874149 0 21.50151 9.653919 21.50151 21.560824z"/><path d="m43 225.442205c0 11.906904-9.6243416 21.557795-21.5015099 21.557795-11.87112863 0-21.4984901-9.650891-21.4984901-21.557795v-96.881381c0-11.906905 9.62736147-21.560824 21.4984901-21.560824 11.8771683 0 21.5015099 9.653919 21.5015099 21.560824z"/><path d="m54 103s2.2262724-85.3002895 100.001506-85c96.850382.298869 99.998494 85 99.998494 85z"/></g><path d="m122 59c0 6.6276276-5.375375 12-12 12-6.627628 0-12-5.3723724-12-12s5.372372-12 12-12c6.624625 0 12 5.3723724 12 12" fill="#fffffe"/><path d="m210 59c0 6.6276276-5.378378 12-12 12-6.627628 0-12-5.3723724-12-12s5.372372-12 12-12c6.621622 0 12 5.3723724 12 12" fill="#fffffe"/><path d="m107.382763 28.7141849c.344714.4917249 1.411265.3347284 2.386482-.3613883.960485-.6842679 1.467245-1.6469824 1.122531-2.1387074l-18.2698471-25.92516269c-.3506066-.49764937-1.4230505-.33472845-2.3835359.35250164-.9722705.69315449-1.4760834 1.64994466-1.128423 2.14759403z" fill="#7ebc42"/><g fill="#7ebc42" transform="translate(91)"><path d="m110.350629 29.2454861c-.35255.5003056-1.440331.3405695-2.440728-.3676944-.982318-.6962084-1.500596-1.6757223-1.148047-2.1760278l18.685133-26.37755557c.358576-.50633333 1.455397-.34056944 2.440728.35865278.994371.70525 1.509636 1.67873611 1.15106 2.18506945z" mask="url(#a)"/><path d="m125.995397 350.544125c0 11.850611-9.606225 21.455875-21.454304 21.455875-11.8480798 0-21.4512917-9.605264-21.4512917-21.455875v-96.426361c0-11.850611 9.6032119-21.455875 21.4512917-21.455875 11.848079 0 21.454304 9.605264 21.454304 21.455875z" mask="url(#a)"/><path d="m43.1944371 350.544125c0 11.850611-9.6032119 21.455875-21.4512914 21.455875-11.84506623 0-21.4512914-9.605264-21.4512914-21.455875v-96.426361c0-11.850611 9.60622517-21.455875 21.4512914-21.455875 11.8480795 0 21.4512914 9.605264 21.4512914 21.455875z" mask="url(#a)"/></g></g></g></svg>