<svg height="500" viewBox="0 0 500 500" width="500" xmlns="http://www.w3.org/2000/svg"><g fill="none" fill-rule="evenodd"><path d="m0 0h500v500h-500z" fill="#f7f7fa"/><path d="m0 0h500v500h-500z" fill="#378aed"/><path d="m250 426.390625c-72-115.816718-108-193.681827-108-233.595326 0-59.870248 48.353247-108.404674 108-108.404674s108 48.534426 108 108.404674c0 39.913499-36 117.778608-108 233.595326zm50.711201-159.48896c.312343-.858154.454654-1.535235.426936-2.031243.033803-1.237203-1.704254-3.709354-5.21417-7.416455-.919226-1.098158-2.239586-2.619984-3.961079-4.565479-1.721492-1.945496-3.277236-3.726537-4.66723-5.343126-1.389995-1.616589-2.683875-3.163486-3.881641-4.640692-.178257-.273131-.749252-1.088355-1.712986-2.445673-.963734-1.357317-1.811917-2.412263-2.544548-3.164838-.732632-.752575-1.528025-1.285034-2.38618-1.597377-1.225935-.446203-3.076274-.13048-5.551017.947172s-4.85202 2.364321-7.131831 3.860007c-2.27981 1.495687-4.59579 2.804666-6.94794 3.926938s-4.079895 1.482617-5.183237 1.081033c-.551671-.200792-1.185484-.605023-1.901439-1.212695-.715955-.607671-1.249429-1.096862-1.60042-1.467572-.350992-.37071-.930382-1.067509-1.738169-2.090399-.807788-1.022889-1.261824-1.587292-1.362107-1.693209-6.702081-7.71505-11.963463-15.669316-15.784146-23.862797s-6.532053-17.336837-8.13411-27.430068c-.016676-.144903-.157185-.855506-.421528-2.131808s-.425698-2.168034-.484065-2.675197-.090199-1.230273-.095495-2.169331c-.005296-.939057.092452-1.684421.293243-2.236092.401584-1.103341 1.788197-2.195246 4.15984-3.275715s4.863063-2.013217 7.474259-2.798244 5.124926-1.779072 7.541189-2.982134c2.416264-1.203062 3.847497-2.417561 4.293701-3.643496.312343-.858155.415725-1.809719.310145-2.854693-.105579-1.044975-.368514-2.372827-.788802-3.983557-.420289-1.610729-.677758-2.572153-.772408-2.88427-.361696-1.867072-.714998-3.852569-1.059906-5.956489-.344908-2.103921-.709252-4.440521-1.093034-7.009801-.383781-2.569281-.700857-4.558946-.951228-5.968996-.583673-5.07163-1.360249-7.992127-2.32973-8.761491-.362147-.340062-.972297-.666264-1.830452-.978607-1.655012-.602375-3.927274-1.082326-6.816785-1.439851-2.889511-.357526-5.223181-.478035-7.001013-.361525-3.533351.171722-8.143001 2.728384-13.828949 7.669985-5.223293 4.624075-8.861209 9.755764-10.913747 15.395065-.602375 1.655013-1.080748 3.303095-1.435119 4.944248-.354372 1.641153-.612685 3.542874-.774941 5.705162-.162255 2.162288-.247721 3.779835-.256396 4.85264-.008676 1.072806.000508 3.002471.027551 5.788994.027044 2.786523.032115 4.489085.015213 5.107687-.041012 6.787939.550661 13.077278 1.77502 18.868017 1.986739 9.608491 5.640941 20.11891 10.962607 31.531259s11.024238 20.967597 17.107718 28.665746c3.64896 4.660129 8.086553 9.156087 13.312779 13.487872.48474.384682 1.785719 1.482953 3.902936 3.294812s3.589523 3.059259 4.416917 3.742199c.827393.68294 2.121442 1.657209 3.882147 2.922806 1.760704 1.265597 3.383547 2.29012 4.868529 3.073568 1.484981.783449 3.054978 1.476361 4.709991 2.078736 5.639301 2.052538 11.90881 2.564319 18.808525 1.535343 7.440343-1.179289 12.361885-3.067095 14.764627-5.663419 1.232019-1.287007 2.639759-3.152164 4.22322-5.59547 1.583461-2.443307 2.67638-4.492467 3.278755-6.14748z" fill="#fff"/></g></svg>