<svg height="500" viewBox="0 0 500 500" width="500" xmlns="http://www.w3.org/2000/svg" xmlns:xlink="http://www.w3.org/1999/xlink"><mask id="a" fill="#fff"><path d="m.06.34806755h328.511v373.65193245h-328.511z" fill="#fff" fill-rule="evenodd"/></mask><g fill="none" fill-rule="evenodd"><path d="m0 0h500v500h-500z" fill="#f7f7fa"/><path d="m0 0h500v500h-500z" fill="#071a2e"/><g transform="translate(84 63)"><path d="m166.228 132.199c-30.361 0-54.976 24.613-54.976 54.974 0 9.929 2.647 19.236 7.251 27.275l95.272-54.857c-9.523-16.374-27.243-27.392-47.547-27.392" fill="#5c8dbc" mask="url(#a)"/><path d="m55.824 187.173c0-60.973 49.429-110.402 110.404-110.402 40.842 0 76.501 22.181 95.6 55.151l66.548-38.319c-2.669-4.686-6.667-8.613-12.028-11.718-44.26-25.519-88.561-50.961-132.807-76.507-11.928-6.887-23.493-6.636-35.333.349-17.616 10.39-105.816 60.921-132.098 76.144-10.824 6.266-16.091 15.855-16.093 28.319-.017 51.323 0 102.644-.017 153.967 0 6.146 1.289 11.589 3.887 16.283l66.559-38.324c-9.3-16.18-14.622-34.939-14.622-54.943" fill="#5c8dbc" mask="url(#a)"/><path d="m118.503 214.448c9.476 16.543 27.29 27.701 47.725 27.701 20.562 0 38.477-11.299 47.905-28.019l-47.396-27.456z" fill="#1b4774" mask="url(#a)"/><path d="m166.228 297.577c-40.971 0-76.73-22.317-95.782-55.461l-66.559 38.324c2.67 4.826 6.723 8.861 12.209 12.037 26.284 15.223 114.494 65.75 132.107 76.142 11.845 6.989 23.41 7.239 35.342.35 44.247-25.547 88.551-50.988 132.817-76.508 5.485-3.174 9.539-7.211 12.209-12.035l-66.457-38.498c-19.024 33.242-54.84 55.649-95.886 55.649" fill="#1b4774" mask="url(#a)"/><path d="m324.069883 193.867527h-12.667443v12.659983h-12.670448v-12.659983h-12.666441v-12.657981h12.666441v-12.657981h12.670448v12.657981h12.667443zm-46.223245 0h-12.666441v12.659983h-12.668445v-12.659983h-12.667443v-12.657981h12.667443v-12.657981h12.668445v12.657981h12.666441zm55.136333-83.252801c-.002003-6.288952-1.348282-11.8462125-4.069889-16.614726l-161.913082 93.159177 162.108412 93.840823c2.597397-4.697446 3.889585-10.146604 3.891588-16.298427 0 0 0-102.714221-.017029-154.086847z" fill="#1c598e"/><g fill="#fffffe"><path d="m311.334001 168h-12.669004v12.665999h-12.664997v12.665999h12.664997v12.668002h12.669004v-12.668002h12.665999v-12.665999h-12.665999z"/><path d="m264.334335 168h-12.667668v12.665999h-12.666667v12.665999h12.666667v12.668002h12.667668v-12.668002h12.665665v-12.665999h-12.665665z"/><path d="m214.086451 214.479684c-9.414746 16.73469-27.304561 28.043617-47.837656 28.043617-20.406272 0-38.19523-11.167803-47.657908-27.725338-4.597528-8.046063-7.240807-17.36124-7.240807-27.298964 0-30.387675 24.580397-55.0223 54.898715-55.0223 20.275457 0 37.970547 11.02768 47.480159 27.416067l47.985448-27.69331c-19.072151-32.9989678-54.681022-55.199456-95.465607-55.199456-60.889282 0-110.248795 49.472428-110.248795 110.498999 0 20.021576 5.3145184 38.797057 14.6014446 54.991273 19.0252169 33.17312 54.7339474 55.509728 95.6473504 55.509728 40.988298 0 76.753949-22.426687 95.751205-55.697893z"/></g></g></g></svg>