<svg height="500" viewBox="0 0 500 500" width="500" xmlns="http://www.w3.org/2000/svg" xmlns:xlink="http://www.w3.org/1999/xlink"><linearGradient id="a" x1="49.997247%" x2="49.997247%" y1="-19.516046%" y2="129.625092%"><stop offset="0" stop-color="#0994dc"/><stop offset=".35000601" stop-color="#66cef5"/><stop offset=".84616101" stop-color="#127bca"/><stop offset="1" stop-color="#127bca"/></linearGradient><linearGradient id="b" x1="50.000762%" x2="50.000762%" y1="-19.516187%" y2="129.624154%"><stop offset="0" stop-color="#0e76bc"/><stop offset=".360001" stop-color="#36aee8"/><stop offset=".84616101" stop-color="#00adef"/><stop offset="1" stop-color="#00adef"/></linearGradient><linearGradient id="c" x1="49.999198%" x2="49.999198%" y1="110.921751%" y2="-6.213958%"><stop offset="0" stop-color="#1c63b7"/><stop offset=".5" stop-color="#33bdf2"/><stop offset="1" stop-color="#33bdf2" stop-opacity=".419608"/></linearGradient><linearGradient id="d" x1="50.00099%" x2="50.00099%" y1="-19.514999%" y2="129.627315%"><stop offset="0" stop-color="#166ab8"/><stop offset=".39999399" stop-color="#36aee8"/><stop offset=".84616101" stop-color="#0798dd"/><stop offset="1" stop-color="#0798dd"/></linearGradient><linearGradient id="e" x1="49.998542%" x2="49.998542%" y1="-19.521133%" y2="129.626892%"><stop offset="0" stop-color="#124379"/><stop offset=".389999" stop-color="#1487cb"/><stop offset=".78022802" stop-color="#165197"/><stop offset="1" stop-color="#165197"/></linearGradient><linearGradient id="f" x1=".000305%" x2="100.000291%" y1="50.000544%" y2="50.000544%"><stop offset="0" stop-color="#33bdf2" stop-opacity=".698039"/><stop offset="1" stop-color="#1dacd8"/></linearGradient><linearGradient id="g" x1="50.009571%" x2="50.009571%" y1="94.686408%" y2="-3.024584%"><stop offset="0" stop-color="#136ab4"/><stop offset=".60000002" stop-color="#59caf5" stop-opacity=".54902"/><stop offset="1" stop-color="#59caf5" stop-opacity=".235294"/></linearGradient><linearGradient id="h" x1="-.000761%" x2="99.999224%" y1="49.999714%" y2="49.999714%"><stop offset="0" stop-color="#05a1e6" stop-opacity=".247059"/><stop offset="1" stop-color="#05a1e6"/></linearGradient><linearGradient id="i" x1="49.998324%" x2="49.998324%" y1="124.313712%" y2="-9.421373%"><stop offset="0" stop-color="#318ed5"/><stop offset="1" stop-color="#38a7e4"/></linearGradient><linearGradient id="j" x1="49.99857%" x2="49.99857%" y1="91.199952%" y2="-76.785407%"><stop offset="0" stop-color="#05a1e6"/><stop offset="1" stop-color="#05a1e6" stop-opacity=".54902"/></linearGradient><linearGradient id="k" x1="50.000069%" x2="50.000069%" y1="100.01049%" y2=".01019%"><stop offset="0" stop-color="#1959a6"/><stop offset=".5" stop-color="#05a1e6"/><stop offset=".91758698" stop-color="#7ec5ea"/><stop offset="1" stop-color="#7ec5ea"/></linearGradient><linearGradient id="l" x1="59.804121%" x2="38.471058%" y1="94.567744%" y2="5.755137%"><stop offset="0" stop-color="#165096"/><stop offset="1" stop-color="#0d82ca"/></linearGradient><linearGradient id="m" x1="49.994684%" x2="49.994684%" y1="76.998096%" y2="-3.298936%"><stop offset="0" stop-color="#05a1e6"/><stop offset=".87362701" stop-color="#0495d6"/><stop offset="1" stop-color="#0495d6"/></linearGradient><linearGradient id="n" x1="65.263117%" x2="34.262698%" y1="-4.161438%" y2="105.843625%"><stop offset="0" stop-color="#38a7e4" stop-opacity=".329412"/><stop offset=".96153301" stop-color="#0e88d3"/><stop offset="1" stop-color="#0e88d3"/></linearGradient><linearGradient id="o" x1="50.016714%" x2="50.016714%" y1="-.295776%" y2="101.881944%"><stop offset="0" stop-color="#168cd4"/><stop offset=".5" stop-color="#1c87cc"/><stop offset="1" stop-color="#154b8d"/></linearGradient><linearGradient id="p" x1="16.673806%" x2="87.812599%" y1="205.564966%" y2="-19.836275%"><stop offset="0" stop-color="#97d6ee"/><stop offset=".70329303" stop-color="#55c1ea"/><stop offset="1" stop-color="#55c1ea"/></linearGradient><linearGradient id="q" x1="6.890159%" x2="75.782897%" y1="6.300383%" y2="116.770678%"><stop offset="0" stop-color="#7accec"/><stop offset="1" stop-color="#3fb7ed"/></linearGradient><linearGradient id="r" x1="49.996653%" x2="49.996653%" y1="6.362819%" y2="127.96135%"><stop offset="0" stop-color="#1da7e7"/><stop offset="1" stop-color="#37abe7" stop-opacity="0"/></linearGradient><g fill="none" fill-rule="evenodd"><path d="m0 0h500v500h-500z" fill="#fff"/><path d="m0 0h500v500h-500z" fill="#fff"/><g fill-rule="nonzero" transform="translate(45 168)"><path d="m142.2933 33.2639055c14.735561 45.0615502 20.318188 125.4472595 63.407408 125.4472595 3.281138 0 6.595232-.32095 9.922484-.953732-39.170219-9.133135-43.81253-88.6444382-67.71444-129.820202-1.874119 1.703223-3.734951 3.4786074-5.615452 5.3266745" fill="url(#a)"/><path d="m147.908752 27.937231c23.90191 41.1757638 28.544221 120.687067 67.71444 129.820202 3.077289-.56544 6.161222-1.420308 9.251667-2.498694-35.159125-17.227742-44.877759-94.4372977-72.021343-131.6087423-1.643956 1.3682054-3.294295 2.8016688-4.944764 4.2872343" fill="url(#b)"/><path d="m182.347432 3.44956029c-3.274626 0-6.595494.32081966-9.928997.95373184-8.719182 1.64382626-17.576045 5.39818477-26.505591 11.07941507 2.439298 2.4066033 4.760193 5.1615102 6.943277 8.1667686 9.080904-7.5355498 18.102539-13.1047602 27.091482-16.45193953 3.37297-1.24928192 6.733304-2.18933691 10.106275-2.80739996-2.432915-.61871431-4.997389-.94057602-7.706446-.94057602" fill="#14559a"/><path d="m252.321026 139.378622c3.59675-2.860023 7.200142-6.023152 10.810047-9.474926-14.972365-44.8517086-20.331343-126.38783559-63.723147-126.38783559-3.103602 0-6.233514.28929779-9.356913.86789337 39.525294 9.83065412 44.588461 95.82491122 62.270013 134.99486822" fill="url(#c)"/><path d="m190.052315 4.38687993c-2.432916-.61806306-4.997259-.93992476-7.706445-.93992476l17.063489.06252271c-3.103731 0-6.233645.28929779-9.357044.87479692" fill="#3092c4"/><path d="m251.563198 148.906822c-1.696448-1.617514-3.30719-3.392899-4.892141-5.286686-7.298874 5.168284-14.571308 9.087286-21.7975 11.638603 2.570726 1.256185 5.266627 2.189988 8.127301 2.768584 2.215648.452378 4.510753.683842 6.923738.683842 8.107763 0 14.518685-.959984 19.976267-3.577081-3.004737-1.624418-5.760035-3.728568-8.337665-6.227262" fill="#1969bc"/><path d="m179.944477 7.20496084c35.402572 18.51649146 38.479862 102.36726116 66.728143 136.41517516 1.893787-1.334599 3.767775-2.748524 5.641763-4.241514-17.681422-39.169957-22.738076-125.1711176-62.256728-134.99486822-3.37323.63121886-6.739949 1.56554262-10.113178 2.82120706" fill="url(#d)"/><path d="m152.853516 23.6499967c27.143584 37.1714446 36.862218 114.3810003 72.021343 131.6087423 7.226453-2.551317 14.499017-6.470319 21.797761-11.638603-28.248281-34.047914-31.325571-117.8986837-66.728143-136.41517516-8.988682 3.34027576-18.010189 8.90948626-27.090961 16.44503586" fill="url(#e)"/><path d="m124.926706 32.1786154c-4.25441 9.6202913-8.600781 22.2645977-13.854642 38.7691604 10.448456-14.7227958 20.864089-27.4066998 31.220455-37.6838703-1.426821-4.3860985-2.958888-8.4298849-4.609357-12.0336678-4.234611 3.2419327-8.502177 6.8915657-12.756456 10.9483777" fill="url(#f)"/><path d="m141.455757 18.4564436c-1.249413.894205-2.505077 1.8084693-3.767515 2.7748361 1.650209 3.6033921 3.175633 7.6475694 4.602844 12.0331468 1.88011-1.8411636 3.747455-3.6229305 5.61493-5.3261534-2.005286-3.4456526-4.135747-6.6281888-6.450259-9.4818295" fill="#2b74b1"/><path d="m145.912844 15.4827072c-1.486086.940576-2.96527 1.9331241-4.458129 2.972043 2.314512 2.8537711 4.444973 6.0363072 6.457163 9.4887331 1.650599-1.4928599 3.300808-2.9327059 4.944764-4.2940075-2.183084-3.0047373-4.503979-5.7601653-6.943798-8.1667686" fill="#125a9e"/><path d="m387.388447.01810553c-20.022638 77.21580787-61.842776 139.23586147-96.903297 154.87240047h-.066432c-.637731.289298-1.26908.552414-1.893656.808497-.085968.052102-.164122.058615-.230422.089876-.184182.074246-.355076.131559-.539258.205153-.085969.052102-.164122.069036-.242927.100297-.295681.105507-.585239.194732-.874536.310399-.125046.052102-.243058.084666-.361981.126348-.131558.052102-.283046.100297-.434011.142109-.131428.052102-.269238.089876-.420856.147189-.125045.052102-.256604.074246-.374486.126348-.256734.074246-.492888.136768-.74962.226124-.105508 0-.20359.057312-.31561.084666-.157869.052102-.33567.089876-.506564.136768-.118533.052102-.216745.069036-.341922.095087-.177799.052102-.375136.100297-.552413.142109-.236675.052102-.447039.100297-.670686.147319 1.58469.585369 3.235158.881049 5.017186.881049 33.24567 0 66.766961-59.5802352 122.231509-158.659844h-21.777964z" fill="url(#g)"/><path d="m103.852254 6.58312038c.020841 0 .046892-.05210227.059918-.05210227.026051 0 .06643 0 .079455-.05210225h.041682c.184051-.06252272.355077-.13676843.539128-.20515265.046892 0 .071641 0 .105507-.05210225.046892 0 .092482-.05210226.138332-.05861505.197337-.0625227.394544-.13676843.578726-.20515263h.031261c.440785-.13142795.848225-.29450802 1.275594-.44703739.059917 0 .118532-.05210226.190433-.05210226.177799-.05731248.361981-.12113774.545772-.16308007.085968-.05210225.171025-.05210225.24983-.07945594.190434-.05731249.375136-.12113775.552414-.16308007.079456 0 .151487-.05210226.210363-.05731249.61155-.16829029 1.216457-.32616013 1.828008-.47347927.085968 0 .15787-.05210225.24983-.05731248.177278-.05210226.342051-.07945595.532615-.10550707.079456-.05210227.171026-.05210227.263117-.07945594.177278-.05210227.348173-.05731249.539128-.10029686h.125045c.368233-.07424572.743109-.13676842 1.111341-.20515265h.223519c.177278-.05210225.335148-.05731248.512947-.08987639.097692 0 .197207-.05210225.289298-.05210225.164122 0 .328765-.05210227.492887-.07424572.085969 0 .170895 0 .26989-.05210226.387641-.05210227.788958-.07294316 1.196658-.10550708-1.150678-.1107173-2.334311-.18418147-3.537613-.18418147-37.4408391 0-89.0255921 69.46989528-112.26339472 159.43577738h4.4779156c7.43688102-13.2625 14.11758892-25.808594 20.22622702-37.585528 16.274349-63.7228856 49.4214151-107.180598 78.8665121-118.69402481" fill="url(#h)"/><path d="m124.927096 32.1786154c4.254541-4.056812 8.521846-7.706445 12.756457-10.9478568-.966367-2.1173056-1.965818-4.0768715-3.037953-5.8721851-3.425593 4.1556762-6.555506 9.6396994-9.718504 16.8200419" fill="#0d82ca"/><path d="m128.002823 7.10974395c2.446071 2.05152644 4.635408 4.87260325 6.641214 8.25247675.631219-.7759329 1.269342-1.49286 1.933255-2.1635463-2.781219-2.5971673-5.786477-4.72762867-9.047948-6.33198749.131558.07294317.262986.13155822.399754.18939172 0 0 .052103.05210226.074246.05210226" fill="#0d82ca"/><path d="m24.9864067 125.27454c34.1399658-65.7880887 50.3156851-107.4241759 78.8664983-118.69454576-29.4385054 11.52072116-62.5921495 54.97791256-78.8664983 118.69454576" fill="url(#i)"/><path d="m136.575077 13.1969811c-.663782.6775899-1.295001 1.3877436-1.933124 2.1636765 1.072004 1.7947926 2.071065 3.747976 3.044726 5.8716641 1.262438-.9663667 2.518102-1.880631 3.767514-2.7748361-1.544962-1.9069426-3.175762-3.6755538-4.879116-5.2605045" fill="#127bca"/><path d="m40.4848487 162.564387c-.2104149.052103-.42083.052103-.6181022.074246h-.1184024c-.1777988 0-.3619152.052102-.5260374.052102h-.0857081c-.4271474.052102-.8482378.052102-1.2559251.084666h-.1315059c34.5542308-.966886 50.3485355-18.267312 58.1865388-43.359369 5.9573726-19.022665 10.8496446-35.0473657 15.1368786-48.4940468-14.472705 20.370941-29.011189 44.6539808-43.6284777 71.8569598-7.0489406 13.111534-17.7669874 18.588654-26.9595321 19.759651" fill="url(#j)"/><path d="m40.4848487 162.551232c9.1925447-1.170999 19.9106045-6.641736 26.9595321-19.759652 14.6172756-27.196207 29.1622724-51.4860189 43.6218212-71.85696 5.260375-16.5113361 9.600232-29.1488691 13.861155-38.7691604-28.8203643 27.4330115-57.7525793 73.0474964-84.4425083 130.3726154" fill="url(#k)"/><path d="m24.9847784 125.276103c-6.1083776 11.776934-12.7890725 24.323028-20.22622701 37.585528h13.02632011c1.7227873-13.17106 4.1688711-25.73018 7.1999069-37.579275" fill="#05a1e6"/><path d="m114.886601 3.73990012c-.105508 0-.184182.05210227-.276143.05210227-.157869.05210225-.322512.05210225-.486635.06903549-.097691 0-.190433 0-.289297.05210226-.177799.05210225-.341921.05731248-.512947.08987639-.079456 0-.15774 0-.223519.05210227-.375136.0625227-.743108.13155819-1.111341.19460193h-.125045c-.190434.05210225-.361851.07945594-.539129.10550707-.092481.05210225-.184181.05210225-.269889.07294316-.177278.05210226-.355077.07424571-.525972.10550707-.092482.05210227-.164123.05210227-.249961.05731249-.61142.14731914-1.216458.30518898-1.828008.47347927-.065128 0-.131428.05210227-.210363.06252271-.184051.05210226-.36185.10550707-.552284.16308008-.079456.05210225-.171025.05210225-.24996.07294316-.184052.05210225-.368233.10550707-.545771.16308007-.071641 0-.131428.05210226-.197208.05210226-.420856.15773959-.835068.31560943-1.26908.44716762-.184051.05731249-.381389.13142796-.578596.19981217-.079456.05210227-.151487.06382526-.243057.10029685-.184181.05731249-.368233.1315582-.539258.19994242-.065128.05210225-.131428.05731248-.177278.08466617-28.5507483 11.2703698-44.7264677 52.906457-78.8664335 118.6945457-3.0313095 11.849096-5.4839711 24.408215-7.2001674 37.578754h1.8279816c5.148615 0 6.6017991-.052102 12.5263208-.052102h.3024666.8811143.3024797.0857083.3024667.1709605.1184023.2367136.7364655.7364523.6180891.1641351 1.0849515c.4076741-.052102.828517-.052102 1.2559248-.084665h.078935c.177799 0 .3550769-.052103.5260374-.052103h.1246546c.1904208 0 .4076741-.052102.6180892-.074247 26.689942-57.325118 55.6220787-102.9396035 84.442443-130.3726151 3.169381-7.1803425 6.292781-12.6643657 9.712122-16.8132686-1.999034-3.3797432-4.188631-6.20720255-6.634702-8.25925001s-.06643 0-.071641-.05210225c-.138331-.05731249-.269238-.12634798-.407569-.19460195-.138462-.07424571-.256734-.1315582-.400927-.20515263-.125046-.05210227-.26976-.12113777-.394545-.18939172-.170895-.05210225-.309227-.12634798-.460193-.19473219-.125045-.05210226-.236805-.10550708-.36198-.15773958-.256734-.10029686-.512817-.20515265-.756134-.31560944-.11202-.05210226-.216746-.07945594-.322513-.12113774-.177278-.06382528-.381389-.14731914-.56544-.22625407-.092482-.05210225-.197337-.06252271-.302454-.10029685-.269368-.08987639-.532615-.18405122-.782576-.26832662h-.065128c-.302583-.10029685-.598394-.17350054-.90749-.25777592-.071641-.05210227-.131559-.05210227-.20359-.06252272-.26989-.07424573-.506564-.14731914-.762777-.21570335-.065128 0-.125046-.05210227-.177278-.05210227-.618063-.16308005-1.255925-.29450801-1.9003-.41551551-.06643 0-.131428-.05210225-.197207-.05210225-.276142-.05210226-.545771-.10029686-.821913-.1315582-.06643-.05210227-.105507-.05210227-.164122-.05210227-.328765-.05210225-.651018-.08987639-.97327-.12634798h-.170896c-.262986-.05210225-.506043-.05731248-.749621-.08466616-.414473.05210226-.808757.07424571-1.196789.1107173" fill="url(#l)"/><path d="m309.17931 42.7651431c-6.568923 21.0416274-11.888564 38.4009277-16.517589 52.6829383 18.023344-24.8027592 35.777188-56.003806 52.683069-92.01063489-19.720184 6.19352575-30.240933 20.37081089-36.16548 39.32769659" fill="url(#m)"/><path d="m293.233674 153.575445c-.920516.468139-1.841034.913744-2.748524 1.315061 35.060521-15.636539 76.880659-77.6565926 96.903297-154.87240047h-4.057333c-46.002127 82.17372847-60.796954 137.18433547-90.09744 153.55733947" fill="url(#n)"/><path d="m270.339681 146.671635c7.627509-9.310803 13.841095-25.137776 22.323995-51.2230325-9.784805 13.4402985-19.634346 24.9937135-29.491312 34.4161465 0 .052103 0 .052103-.052102.084667 2.150521 6.444007 4.510753 12.131489 7.200401 16.721177" fill="#079ae1"/><path d="m270.339681 146.671635c-2.597558 3.169511-5.345691 5.582888-8.403573 7.371428-.670687.389334-1.347625.756004-2.038372 1.091542 3.228908 1.7423 6.752845 2.906395 10.698027 3.37297.578205.057313 1.150549.110718 1.749203.15253h.105507c.268327 0 .552415 0 .841712.052102h.115928.861641.92742.289428.657531c.105508 0 .215573 0 .320819-.052102.205153 0 .420856 0 .63122-.052103h.074245.236675c.215703 0 .452378-.052102.683841-.074245h.052104c.069034 0 .141977-.052103.210362-.052103.242014-.052102.494581-.074245.730213-.110717h.215704c.268196-.052102.54551-.084666.821653-.136768h.052102.079456c.552413-.105507 1.091542-.210363 1.637053-.347132-4.52391-1.657112-8.311353-5.562958-11.572824-11.125786" fill="#1969bc"/><path d="m205.701489 158.712207c3.281401 0 6.595495-.32082 9.922614-.959984 3.07742-.558667 6.161093-1.414056 9.251538-2.492442 2.571246 1.256185 5.267148 2.189988 8.120918 2.768584 2.21578.452378 4.517136.683842 6.930643.683842z" fill="#1e5cb3"/><path d="m239.927723 158.712207c8.100989 0 14.518685-.959984 19.970013-3.577081 3.228387 1.7423 6.752845 2.906395 10.698027 3.373491.578726.057313 1.15107.110718 1.749203.15253h.105507c.268327 0 .552415 0 .841712.052102h.121139.861641-34.370429z" fill="#1e5cb3"/><path d="m274.295415 158.712207h.933802.289297.65128c.110717 0 .215573 0 .320819-.052102.205153 0 .420856 0 .638122-.052103h.069036.242015c.215573 0 .452378-.052102.677459-.072943h.057314c.069034 0 .136768-.052102.205152-.052102.242015-.052102.494581-.072943.729691-.110717.079456 0 .141979 0 .226124-.052103.268326-.052102.546031-.079456.822304-.131427h.052102.079457c.552414-.105508 1.091542-.210494 1.637052-.347262 1.58443.584978 3.235161.881179 5.016797.881179l-12.638054.052103z" fill="#1d60b5"/><path d="m263.141364 129.950458v-.052103c-3.609775 3.451905-7.213167 6.615033-10.810178 9.475057-1.880631 1.49286-3.754359 2.906394-5.648015 4.241514 1.58443 1.893657 3.195693 3.669041 4.892142 5.286686 2.577629 2.498173 5.332406 4.602844 8.337664 6.226741.683841-.336711 1.367684-.703902 2.031597-1.091542 3.064134-1.788541 5.812788-4.201526 8.410347-7.370907-2.68965-4.589688-5.050012-10.277822-7.200402-16.721699" fill="#175fab"/><path d="m370.482697.01810553h-17.056848-1.696578-1.604359-.062523c-1.104699.05210226-2.176182.0898764-3.23516.15786985-.49966 1.07213423-1.012607 2.1441382-1.506015 3.2225247-16.90536 36.00682892-34.659204 67.20787562-52.682548 92.01063482-8.475864 26.0847351-14.696224 41.9122291-22.323864 51.2231631 3.261472 5.562828 7.055557 9.474926 11.566311 11.132039.131559-.052103.236675-.052103.355076-.079456h.072943c.079457 0 .164122-.052103.249962-.052103.184051-.052102.381388-.084666.56544-.141978.118531-.052103.216745-.057313.335667-.095087.170897-.052102.348174-.089876.506043-.131558.105509-.052102.210364-.069036.31561-.089876.262987-.084667.499662-.14732.749622-.226255.118532-.052102.243578-.095086.375005-.126348.144714-.052102.289298-.089876.420856-.152529.151488-.052102.302455-.079456.434012-.136768.118533-.052103.243057-.084666.355078-.131559.29555-.105507.585238-.194601.881049-.310399.079455 0 .15787-.072943.243577-.089876.177278-.074246.36146-.131558.53926-.210493.065127-.052103.144583-.057313.22977-.084666.618193-.257776 1.255925-.520763 1.893787-.808497h.066429c.907363-.399755 1.828009-.848486 2.742013-1.315061 29.306999-16.373005 44.102087-71.3836115 90.104213-153.55733994h-12.848547z" fill="url(#o)"/><path d="m116.084692 3.62892232c.072943 0 .138331 0 .210363.05210225.177278 0 .355077 0 .532615.05731248h.177799c.321992.05210226.644375.07945595.97314.12634798.059918 0 .11202 0 .164122.05210226.269369.05210227.545771.09508662.821913.13676842.059918 0 .138462.05210227.204111.05210227.631349.12634798 1.275724.25777593 1.893787.420856.058615 0 .118532.05210225.171025.05210225.262986.06252272.499661.14197866.762647.2155731.079456 0 .137811.05210225.210493.06382526.309227.07945594.598395.15786984.900848.25777593.013026 0 .031262 0 .066431.05210227.256082.07815338.519199.17884098.788958.26819637.105507.05210225.20359.07424571.302454.10029685.184181.07945594.388292.15773957.56557.23146428.105507 0 .210363.07294316.321861.1107173.243058.1107173.499791.21036286.749622.31560943.131558.05210225.243057.1107173.368233.15773959.144713.07424571.29568.14210891.45355.19473218.131428.06252272.276142.13142795.400796.18926145.138332.07424573.269369.13155821.401318.20515265 3.261471 1.60448907 6.266469 3.74172371 9.047948 6.33250851 1.025763-1.0783865 2.097507-2.0452742 3.208848-2.9131675-6.082418-4.31354602-12.973463-6.77277262-20.923225-6.77277262-.920647 0-1.841164.05210225-2.774836.12113775" fill="#7dcbec"/><path d="m136.575208 13.1969811c1.703092 1.5844297 3.333763 3.3535619 4.878985 5.2605045 1.4926-1.0389191 2.972174-2.0385008 4.458261-2.9721733-1.946411-1.9464101-3.997937-3.695483-6.135041-5.2014987-1.111211.861641-2.176442 1.834781-3.202205 2.9131675" fill="#5ec5ed"/><path d="m116.083127 10.1047011c.93372.078906 1.85429.1117834 2.774859.1117834 7.949774 0 14.840892-2.45923507 20.923225-6.76618428 6.417683 5.06313111 14.176767 6.83193928 24.954003 6.83193928h-52.189703c1.203316 0 2.380329-.0723305 3.537616-.1775384" fill="url(#p)" transform="matrix(1 0 0 -1 0 13.73254)"/><path d="m164.735214 15.4834577c-10.777236 0-18.53632-1.7688082-24.954003-6.83193928 2.13046-1.50578835 4.182015-3.25486999 6.128361-5.20121651 8.936098 5.68122764 17.786714 9.44241079 26.512396 11.08628449 3.327201.624672 6.647825.9468713 9.922422.9468713z" fill="url(#q)" transform="matrix(1 0 0 -1 0 18.93376)"/><path d="m292.661721 95.4612372c4.635669-14.2951664 9.942024-31.6475631 16.524101-52.6960941 5.931192-18.9636591 16.432271-33.14042312 36.152063-39.32769659.520893-1.0589784 1.012739-2.15052072 1.519303-3.22252469-32.147875 1.92687178-47.172864 18.27981688-54.734725 42.49772828-13.223293 42.2803316-21.232321 69.6870319-28.94528 87.1515779 9.850062-9.41618 19.700126-20.975848 29.484538-34.4029908" fill="url(#r)"/><g fill="#000"><path d="m339.825077 147.449131h-3.64286v11.322994h-1.486087v-11.322994h-3.655885v-1.347625h8.784832z"/><path d="m354.741432 158.77004h-1.479182v-8.508689c0-.670687.052102-1.492339.121136-2.459227-.152658.578726-.278877.980044-.394544 1.236256l-4.313545 9.73166h-.723309l-4.326703-9.659107c-.126348-.268327-.252435-.703771-.389204-1.308809h-.052102c.052102.510342.069036 1.335121.069036 2.479286v8.48863h-1.420308v-12.670618h1.959435l3.885917 8.843708c.294509.664434.478689 1.17725.572344 1.519171h.057312c.257776-.696998.468139-1.216718.611811-1.558639l3.964721-8.80424h1.867475v12.670618z"/></g></g></g></svg>