<svg height="500" viewBox="0 0 500 500" width="500" xmlns="http://www.w3.org/2000/svg" xmlns:xlink="http://www.w3.org/1999/xlink"><linearGradient id="a" x1="50%" x2="50%" y1="0%" y2="100%"><stop offset="0" stop-color="#00a29c"/><stop offset="1" stop-color="#00add8"/></linearGradient><g fill="none" fill-rule="evenodd"><path d="m0 0h500v500h-500z" fill="#f7f7fa"/><path d="m0 0h500v500h-500z" fill="url(#a)"/><g fill="#fff" fill-rule="nonzero" transform="translate(67 181)"><path d="m26.7106599 40.8421053c-.7106599 0-.8883249-.3157895-.5329949-.7894737l3.7309644-4.2631579c.35533-.4736842 1.2436549-.7894737 1.9543148-.7894737h63.4263959c.7106599 0 .8883249.4736842.5329949.9473684l-3.0203045 4.1052632c-.35533.4736842-1.2436549.9473684-1.7766498.9473684z"/><path d="m.71218322 57c-.71218322 0-.89022903-.3243243-.53413741-.8108108l3.73896191-4.3783784c.35609161-.4864865 1.24632064-.8108108 1.95850386-.8108108h81.18888722c.7121833 0 1.0682749.4864865.8902291.972973l-1.4243665 3.8918919c-.1780458.6486486-.890229.9729729-1.6024122.9729729z"/><path d="m42.7099567 73.8421053c-.7099567 0-.8874459-.4736842-.5324675-.9473685l2.4848485-3.9473684c.3549783-.4736842 1.064935-.9473684 1.7748917-.9473684h35.4978355c.7099567 0 1.0649351.4736842 1.0649351 1.1052632l-.3549784 3.7894736c0 .631579-.7099567 1.1052632-1.2424242 1.1052632z"/><g transform="translate(96)"><path d="m132.348214 38.3942101c-11.252277 2.8612076-18.932403 5.0071133-30.006073 7.8683209-2.6791132.7153019-2.8577208.8941274-5.1796193-1.7882547-2.6791137-3.0400331-4.643797-5.0071134-8.3945561-6.7953681-11.2522773-5.5435898-22.1473395-3.9341605-32.3279714 2.6823821-12.1453152 7.8683209-18.3965804 19.4919769-18.2179728 33.9768404.1786076 14.306038 10.0020243 26.1085193 24.1120228 28.0755993 12.1453153 1.60943 22.3259471-2.6823818 30.3632881-11.802481 1.6074682-1.9670803 3.0363288-4.112986 4.8224045-6.6165426-6.4298727 0-14.4672137 0-34.4712622 0-3.7507592 0-4.643797-2.3247312-3.393544-5.3647643 2.3218985-5.5435897 6.6084803-14.8425145 9.1089864-19.4919768.5358227-1.0729529 1.7860758-2.8612076 4.4651894-2.8612076h65.0131576c-.357215 4.8282878-.357215 9.6565756-1.071645 14.4848635-1.964683 12.8754342-6.787088 24.6779156-14.645821 35.0497928-12.859746 16.988421-29.6488582 27.539124-50.9031598 30.400331-17.5035425 2.324731-33.756832-1.072953-48.0454381-11.802481-13.2169607-10.014227-20.71847887-23.247312-22.68316222-39.6992557-2.32189849-19.4919769 3.39354396-37.0168735 15.18164402-52.3958644 12.6811379-16.6307692 29.4702501-27.18147227 50.0101215-30.93680726 16.7891122-3.04003308 32.8637941-1.07295285 47.3310076 8.76244826 9.466202 6.2588917 16.25329 14.8425145 20.718479 25.2143921 1.071646 1.6094293.357215 2.5035567-1.786076 3.0400331z"/><path d="m191.467322 137.284698c-16.253289-.357651-31.077718-5.007113-43.580249-15.736642-10.537847-9.120099-17.146327-20.743755-19.289618-34.5133165-3.214936-20.2072788 2.321899-38.0898263 14.467214-54.0052937 13.038353-17.1672456 28.75582-26.10851941 50.010121-29.8638544 18.217973-3.21885856 35.364301-1.43060381 50.90316 9.1200993 14.109998 9.6565756 22.861769 22.7108354 25.183668 39.878081 3.036329 24.1414392-3.929367 43.8122415-20.539871 60.6218363-11.7881 11.981307-26.255314 19.491977-42.865819 22.889661-4.822404.894127-9.644809 1.072953-14.288606 1.609429zm42.508603-72.245492c-.178607-2.3247312-.178607-4.112986-.535822-5.9012407-3.214937-17.7037221-19.468226-27.7179488-36.435946-23.7837883-16.610505 3.755335-27.326959 14.3060381-31.256326 31.1156328-3.214936 13.9483871 3.572152 28.0755996 16.431897 33.7980152 9.823417 4.291811 19.646834 3.755335 29.113035-1.0729532 14.109999-7.3318445 21.790125-18.7766749 22.683162-34.1556658z"/></g></g></g></svg>