<svg height="500" viewBox="0 0 500 500" width="500" xmlns="http://www.w3.org/2000/svg"><g fill="none" fill-rule="evenodd"><path d="m0 0h500v500h-500z" fill="#fff"/><path d="m0 0h500v500h-500z" fill="#fff"/><g fill-rule="nonzero" transform="translate(111 89)"><path d="m201 38.4204545v241.5000005c0 27.022386 18.7 42.079545 38.5 42.079545 18.333333 0 38.5-12.806818 38.5-42.079545v-239.670455c0-24.7720455-18.333333-40.25-38.5-40.25s-38.5 17.0696591-38.5 38.4204545z" fill="#f9ab00"/><g fill="#e37400" transform="translate(0 123)"><path d="m100.360825 38.3394495v118.6697245c0 26.965413 18.612371 41.990826 38.319587 41.990826 18.247423 0 38.319588-12.779817 38.319588-41.990826v-116.8440364c0-24.7198165-18.247423-40.1651376-38.319588-40.1651376s-38.319587 17.0336697-38.319587 38.3394495z"/><ellipse cx="38.319588" cy="160.66055" rx="38.319588" ry="38.33945"/></g></g></g></svg>