<svg height="500" viewBox="0 0 500 500" width="500" xmlns="http://www.w3.org/2000/svg" xmlns:xlink="http://www.w3.org/1999/xlink"><defs><linearGradient id="a" x1="50%" x2="50%" y1="0%" y2="100%"><stop offset="0" stop-color="#fff"/><stop offset="1" stop-color="#888"/></linearGradient><path id="b" d="m239.865162 225.998046c-4.398725 10.131793-9.605379 19.458054-15.637916 28.032486-8.222922 11.689153-14.955665 19.780267-20.144365 24.273341-8.043382 7.375085-16.661292 11.152132-25.889638 11.36694-6.625018 0-14.614539-1.879573-23.9147-5.692421-9.330683-3.794947-17.905503-5.674519-25.746006-5.674519-8.222922 0-17.041917 1.879572-26.474938 5.674519-9.4473836 3.812848-17.0580753 5.799825-22.87696 5.996733-8.8495163.375914-17.6703063-3.508536-26.4749377-11.671252-5.6195955-4.88689-12.6485783-13.264414-21.0689946-25.132574-9.0344423-12.673691-16.4620035-27.370161-22.28088815-44.12521-6.23182617-18.097601-9.35581855-35.62238-9.35581855-52.588657 0-19.434783 4.21200352-36.196993 12.6485783-50.243667 6.6304046-11.282807 15.4511945-20.1830318 26.4910963-26.716785 11.0399018-6.5337531 22.9685256-9.8632821 35.8145977-10.0763004 7.0289829 0 16.2465558 2.167774 27.7011947 6.4281391 11.422321 4.2746856 18.756522 6.4424596 21.97208 6.4424596 2.404037 0 10.551553-2.5347382 24.363549-7.588104 13.06152-4.6864016 24.085263-6.6268367 33.116115-5.8624771 24.471274 1.9690763 42.856148 11.5871189 55.082808 28.9149903-21.885901 13.2214525-32.71215 31.7397195-32.496702 55.4957305.197493 18.503947 6.930236 33.902123 20.162318 46.128297 5.996629 5.67452 12.693464 10.06019 20.144365 13.17491-1.615858 4.672081-3.321486 9.147255-5.134838 13.443421zm-56.124139-220.19643122c0 14.50332092-5.314378 28.04501662-15.907226 40.57908222-12.783233 14.9005373-28.2452 23.5107709-45.012421 22.1521082-.213652-1.7399474-.337535-3.5711883-.337535-5.4955129 0-13.9231594 6.079218-28.8236967 16.874945-41.0069088 5.389785-6.1685789 12.244614-11.2976647 20.557307-15.38922619 8.294738-4.03052016 16.140627-6.25951452 23.519712-6.64115731.215448 1.93882412.305218 3.87782724.305218 5.80143577z"/><filter id="c" height="101.7%" width="102%" x="-1%" y="-.9%"><feGaussianBlur in="SourceAlpha" result="shadowBlurInner1" stdDeviation="1.5"/><feOffset dx="1" dy="2" in="shadowBlurInner1" result="shadowOffsetInner1"/><feComposite in="shadowOffsetInner1" in2="SourceAlpha" k2="-1" k3="1" operator="arithmetic" result="shadowInnerInner1"/><feColorMatrix in="shadowInnerInner1" type="matrix" values="0 0 0 0 0   0 0 0 0 0   0 0 0 0 0  0 0 0 0.5 0"/></filter></defs><g fill="none" fill-rule="evenodd"><path d="m0 0h500v500h-500z" fill="#f7f7fa"/><path d="m0 0h500v500h-500z" fill="url(#a)"/><g fill-rule="nonzero" transform="translate(128 97)"><use fill="#5c5c5c" xlink:href="#b"/><use fill="#000" filter="url(#c)" xlink:href="#b"/></g></g></svg>