<svg height="500" viewBox="0 0 500 500" width="500" xmlns="http://www.w3.org/2000/svg"><g fill="none" fill-rule="evenodd"><path d="m0 0h500v500h-500z" fill="#f7f7fa"/><path d="m0 0h500v500h-500z" fill="#00007d"/><g fill-rule="nonzero" transform="translate(94 94)"><path d="m275 156c0-65.6881551-53.312173-119-119-119-65.6878264 0-119 53.3118449-119 119 0 65.687827 53.3121736 119 119 119 65.687827 0 119-53.312173 119-119" fill="#fff"/><path d="m241 106c0-19.3198257-15.680174-35-35-35s-35 15.6801743-35 35c0 19.319826 15.680174 35 35 35s35-15.680174 35-35" fill="#00007d"/><path d="m310 37c0-19.3198258-15.680174-35-35-35s-35 15.6801742-35 35c0 19.3198257 15.680174 35 35 35s35-15.6801743 35-35" fill="#fff"/><g fill="#00007d"><path d="m75 139h10.2052018v67.827183h37.7947982v9.172817h-48z"/><path d="m142.752581 159v36.84258c0 2.832917.447419 5.147975 1.342589 6.943545 1.651415 3.316252 4.731371 4.974704 9.240199 4.974704 6.46874 0 10.87396-2.901964 13.214325-8.705569 1.27296-3.109108 1.909607-7.375095 1.909607-12.799262v-27.255998h9.540699v55.496906h-9.010661l.106275-8.187059c-1.214992 2.107263-2.723821 3.886223-4.526819 5.337205-3.571349 2.901966-7.905275 4.352948-13.001777 4.352948-7.940589 0-13.349251-2.643035-16.226652-7.928456-1.560134-2.831939-2.340366-6.614916-2.340366-11.348278v-37.723266z"/><path d="m222.648372 180.769132c2.162198-.280929 3.61013-1.197943 4.342482-2.748379.417642-.850776.62712-2.073017.62712-3.668388 0-3.259976-1.140457-5.625572-3.420383-7.096788-2.280256-1.470551-5.543778-2.20616-9.789579-2.20616-4.908436 0-8.389987 1.348393-10.443664 4.044515-1.148679 1.491187-1.896486 3.708663-2.244741 6.652759h-8.78954c.173962-7.010246 2.412453-11.886895 6.714817-14.63128 4.302364-2.743718 9.293013-4.115411 14.971619-4.115411 6.583935 0 11.932046 1.271171 16.043346 3.812847 4.076115 2.542009 6.114008 6.496318 6.114008 11.863264v32.675982c0 .988577.20027 1.783101.601798 2.382239.40054.599137 1.246675.898374 2.537416.898374.418629 0 .889544-.026295 1.412747-.079219s1.080605-.131811 1.674182-.237659v7.042534c-1.465033.423724-2.581483.688675-3.348365.79419-.767539.105848-1.814274.159105-3.139216.159105-3.243791 0-5.598367-1.164991-7.0634-3.494638-.767539-1.234891-1.307842-2.982709-1.621895-5.241459-1.918519 2.541677-4.674294 4.747502-8.266339 6.618477-3.593031 1.869976-7.552402 2.805963-11.876798 2.805963-5.197827 0-9.443627-1.596037-12.739705-4.786779-3.296407-3.190743-4.944282-7.183997-4.944282-11.979763 0-5.25344 1.621896-9.326247 4.865687-12.21742 3.24379-2.891173 7.498798-4.67261 12.766012-5.342979zm-19.830071 25.751279c1.988235 1.585386 4.342483 2.377247 7.063399 2.377247 3.313179 0 6.521782-.775551 9.626798-2.325986 5.231697-2.57363 7.847711-6.785237 7.847711-12.636817v-7.666303c-1.149336.74393-2.628181 1.363371-4.43818 1.859325-1.809998.496286-3.585467.849777-5.325748 1.060474l-5.691761.740933c-3.411177.458341-5.976546 1.180636-7.695782 2.167216-2.912966 1.655285-4.368462 4.297482-4.368462 7.92493 0 2.74738.993789 4.913596 2.982025 6.498981z"/></g><path d="m161.522144 312-.124941-3.578841c4.425363-.154283 8.88666-.503068 13.259608-1.037455l.434163 3.554116c-4.475143.546584-9.040613.903941-13.56883 1.06218zm-13.611355-.110438c-4.520965-.231424-9.080171-.663285-13.550699-1.284044l.492184-3.546533c4.368333.606254 8.823366 1.028224 13.241146 1.254374zm40.607919-3.191485-.743055-3.502687c4.322839-.917128 8.654579-2.037329 12.875554-3.329285l1.04832 3.423569c-4.321191 1.322944-8.755785 2.469189-13.180819 3.408403zm-67.547452-.553506c-4.404924-1.011082-8.820069-2.230842-13.122469-3.625983l1.104033-3.406096c4.203173 1.362834 8.516452 2.554572 12.819182 3.542247zm93.55866-7.407568-1.344685-3.318405c4.08911-1.656236 8.157451-3.516205 12.092939-5.527818l1.629512 3.188517c-4.028123 2.058756-8.192724 3.962571-12.377766 5.657706zm-119.4416304-.986356c-4.1606461-1.766674-8.2959084-3.740707-12.2913945-5.867374l1.6825875-3.160825c3.9031813 2.077547 7.9435013 4.006415 12.0082162 5.732211zm143.6578384-11.390906-1.901813-3.033906c3.741318-2.345564 7.425935-4.884972 10.952643-7.548004l2.157629 2.857535c-3.608794 2.725338-7.379782 5.323756-11.208459 7.724375zm-167.6795452-1.394153c-3.7878001-2.462596-7.5165908-5.12398-11.082859-7.910965l2.2047699-2.821601c3.484842 2.723691 7.1282507 5.324746 10.8296797 7.730969zm189.3853852-14.998428-2.396962-2.659075c3.282761-2.959731 6.474864-6.09781 9.486973-9.327864l2.618823 2.442156c-3.082985 3.304889-6.349263 6.516483-9.708834 9.544783zm-210.8222236-1.754476c-3.3078142-3.082366-6.5210158-6.347035-9.5496075-9.704012l2.6583829-2.39831c2.9596927 3.280164 6.0993799 6.470659 9.3320315 9.482806zm229.3771696-18.140462-2.819916-2.205787c2.724314-3.482909 5.326985-7.125375 7.735485-10.82619l3.0009 1.952934c-2.464542 3.787188-5.1282 7.515037-7.916469 11.079043zm-247.5998173-2.056778c-2.7286006-3.60917-5.3292928-7.379546-7.7295514-11.205635l3.0328773-1.902826c2.345535 3.738399 4.8868883 7.422403 7.5528534 10.948826zm262.4401473-20.749101-3.160127-1.683927c2.07983-3.902571 4.010322-7.941624 5.737743-12.005731l3.295618 1.401075c-1.768959 4.159711-3.744945 8.294365-5.873234 12.288583zm-276.8941152-2.29051c-2.0603787-4.025866-3.9661464-8.189202-5.6648873-12.375285l3.3180337-1.346351c1.6591816 4.089821 3.5211046 8.157225 5.5340121 12.089796zm287.5408342-22.756429-3.405394-1.106025c1.364135-4.198939 2.558165-8.511614 3.549125-12.817696l3.489128.802734c-1.014365 4.408278-2.236747 8.822818-3.632859 13.120987zm-297.76459766-2.44842c-1.32523551-4.321904-2.47410262-8.755895-3.41462425-13.179007l3.50198431-.745043c.91909369 4.320916 2.04125829 8.652381 3.3358354 12.874727zm303.86529466-24.060582-3.546487-.493838c.608553-4.366739 1.032825-8.821498 1.260291-13.240325l3.576158.184612c-.233398 4.521682-.667232 9.080616-1.289962 13.549551zm-309.52622607-2.544682c-.54888486-4.477506-.90854455-9.042374-1.06842993-13.569001l3.57846555-.126262c.15592946 4.423112.50734763 8.884135 1.04370539 13.259446zm307.35310507-24.492773c-.153952-4.41487-.505041-8.877542-1.043706-13.263732l3.553412-.436805c.551521 4.489704.911181 9.057209 1.068759 13.575594zm-304.74219331-2.506112-3.57582827-.181315c.2291141-4.521682.65866183-9.080946 1.27710507-13.5512l3.54681815.490541c-.60426784 4.368059-1.02425542 8.823149-1.24809495 13.241974zm301.50228831-23.880584c-.919093-4.322565-2.039939-8.656338-3.331879-12.881321l3.424184-1.047016c1.322269 4.324213 2.469158 8.759852 3.40968 13.183953zm-297.85624233-2.442816-3.49011652-.799437c1.00942068-4.407618 2.22718685-8.823148 3.61967313-13.124284l3.40638272 1.102729c-1.36017952 4.201577-2.54992455 8.51524-3.53593933 12.820992zm290.08383433-22.9809306c-1.656214-4.0980625-3.512863-8.17173-5.518188-12.1072678l3.190455-1.625577c2.052467 4.0278441 3.952302 8.1971143 5.647416 12.391439zm-281.8963842-2.3079829-3.2966058-1.3977786c1.764673-4.1620176 3.7367026-8.2983212 5.8613651-12.2941877l3.1614449 1.6806309c-2.075543 3.9042197-4.0024091 7.9452502-5.7262042 12.0113354zm12.479301-23.4760866-3.0028781-1.9499671c2.4615755-3.7904854 5.1216067-7.520642 7.9059199-11.0869554l2.8222242 2.2034792c-2.7206887 3.4848862-5.3197327 7.1299894-7.725266 10.8334433zm16.3603951-20.9557997-2.6208015-2.4395192c3.0803483-3.3091747 6.3436585-6.5240654 9.6989437-9.5543439l2.399929 2.6570979c-3.278804 2.9617082-6.4679405 6.102754-9.4780712 9.3367652zm19.7278779-17.8167317-2.1605955-2.8552264c3.6071461-2.7296242 7.3758259-5.3319978 11.2012071-7.7349243l1.9047788 3.0319269c-3.7383509 2.3478724-7.4206595 4.8909062-10.9453904 7.5582238zm174.9887782-6.2184663-.196147-.1265913 1.947964-3.0048942.188896.1226353zm-11.668335-6.8623016c-3.904831-2.0686463-7.947787-3.9896029-12.016458-5.7097935l1.394134-3.2976365c4.164273 1.7600801 8.302172 3.7262007 12.298318 5.8436373zm-140.8155046-1.0539381-1.6328089-3.1865396c4.0254854-2.063042 8.1884391-3.970812 12.3721614-5.6705635l1.3476525 3.3174165c-4.0871319 1.6605214-8.1541544 3.5244459-12.087005 5.5396866zm116.3299646-9.2965462c-4.204491-1.35953744-8.519748-2.54962721-12.825774-3.53697315l.800416-3.48983112c4.407232 1.01042248 8.823695 2.22853376 13.127084 3.61971903zm-91.712561-.7031749-1.051288-3.42290918c4.319873-1.32690064 8.753478-2.47776031 13.177193-3.42126083l.746681 3.50169904c-4.32152.92174266-8.652601 2.04622913-12.872586 3.34247097zm65.80091-5.23969165c-4.377563-.60823147-8.833914-1.03086169-13.246422-1.25569305l.182303-3.57587361c4.515691.230106 9.077204.66262616 13.557292 1.28536288zm-39.812119-.3029619-.437789-3.55411575c4.475802-.5508698 9.040611-.91251204 13.56817-1.0747071l.128239 3.57818126c-4.424705.15856875-8.885342.51196938-13.25862 1.05064159z" fill="#fff" fill-opacity=".621449"/></g></g></svg>