<svg height="500" viewBox="0 0 500 500" width="500" xmlns="http://www.w3.org/2000/svg"><g fill="none" fill-rule="evenodd"><path d="m0 0h500v500h-500z" fill="#fff"/><path d="m0 0h500v500h-500z" fill="#fff"/><path d="m148.99755 123.211414c14.246145 0 25.791954 11.544234 25.791954 25.785611 0 14.244177-11.545809 25.78981-25.791954 25.78981-14.241245 0-25.787054-11.548783-25.787054-25.78981 0-14.241377 11.545809-25.785611 25.787054-25.785611zm-87.8691923 25.785611c0-48.530024 39.3401773-87.8682007 87.8691923-87.8682007 48.535314 0 87.872693 39.3381767 87.872693 87.8682007 0 3.21235-.171506 6.381302-.506817 9.498452-.66747 8.565686 5.618726 15.10379 14.129941 15.10379 14.444951 0 15.984299-18.624497 15.984299-24.602242 0-64.8836843-52.596842-117.4783226-117.480116-117.4783226-64.8832749 0-117.4783663 52.5946383-117.4783663 117.4783226 0 64.879134 52.5950914 117.475173 117.4783663 117.475173 34.457876 0 65.450992-14.826937 86.941313-38.454764l24.151453 20.280024c-27.28055 30.495286-66.945539 49.702542-111.092766 49.702542-82.2893182 0-148.99755-66.713514-148.99755-149.002975 0-82.2898118 66.7082318-148.997025 148.99755-148.997025 82.294218 0 149.00245 66.7072132 149.00245 148.997025 0 33.077278-15.750841 59.937055-47.384829 59.937055-13.922384 0-22.384249-6.378852-27.006143-13.497965-15.516684 24.873846-43.126245 41.435061-74.611478 41.435061-48.529015 0-87.8691923-39.345878-87.8691923-87.874151zm87.8691923-56.3508983c-31.119821 0-56.3514086 25.2270023-56.3514086 56.3508983 0 31.122496 25.2315876 56.353699 56.3514086 56.353699 31.122971 0 56.356309-25.231203 56.356309-56.353699 0-31.123896-25.233338-56.3508983-56.356309-56.3508983z" fill="#af252a" fill-rule="nonzero" transform="translate(101 101)"/></g></svg>