<svg height="500" viewBox="0 0 500 500" width="500" xmlns="http://www.w3.org/2000/svg"><g fill="none" fill-rule="evenodd"><path d="m0 0h500v500h-500z" fill="#f7f7fa"/><path d="m0 0h500v500h-500z" fill="#f7e018"/><g fill-rule="nonzero" transform="translate(-55 -19)"><path d="m0 0h610v539h-610z" fill="#e6e6e1"/><path d="m561.696113 8h-511.3922261l255.7108931 373z" fill="#d8d8d3"/><path d="m211.2 520h188.6l-94.294847-138z" fill="#b4b6b4"/><path d="m270 330.017872 35.466432 51.982128 35.533568-51.870425-34.571289-52.026809h-1.078651z" fill="#bb7731"/><path d="m223 156v104.859862l47.394515 69.140138 35.524522-51.905361.080963-.102746z" fill="#1a1918"/><path d="m340.814792 330 47.185208-68.736084v-105.263916l-82 121.991893z" fill="#ed9d4a"/><path d="m164 382h59v-121.728751l-59-86.271249z" fill="#4cb2d4"/><path d="m164 156v17.951396l59 86.048604v-104z" fill="#1b82ad"/><path d="m388 260.578993v120.421007h59v-206z" fill="#c02439"/><path d="m447 156h-59v105l59-85.776351z" fill="#8f202f"/></g></g></svg>