<svg height="500" viewBox="0 0 500 500" width="500" xmlns="http://www.w3.org/2000/svg" xmlns:xlink="http://www.w3.org/1999/xlink"><defs><path id="a" d="m387.425709 29.5603983 203.206985 116.0294507 1.106737 540.25555-16.59326 31.336977-216.785165-124.073335v-512.910567z"/><filter id="b" height="103.7%" width="110.3%" x="-5.1%" y="-1.9%"><feMorphology in="SourceAlpha" operator="dilate" radius="1" result="shadowSpreadOuter1"/><feOffset dx="0" dy="0" in="shadowSpreadOuter1" result="shadowOffsetOuter1"/><feGaussianBlur in="shadowOffsetOuter1" result="shadowBlurOuter1" stdDeviation="3"/><feColorMatrix in="shadowBlurOuter1" type="matrix" values="0 0 0 0 0   0 0 0 0 0   0 0 0 0 0  0 0 0 0.534446023 0"/></filter></defs><g fill="none" fill-rule="evenodd"><path d="m0 0h500v500h-500z" fill="#f7f7fa"/><g transform="translate(-230 -121)"><path d="m230 121h500v500h-500z" fill="#539e43"/><path d="m814.976519 23.5644968 1.328537 554.3191072-241.212656-138.827625z" fill="#3d3d3d" transform="matrix(-.8660254 .5 -.5 -.8660254 1448.553525 213.309353)"/><path d="m365.884119 170 1.328537 554.319107-241.212656-138.827625z" fill="#3d3d3d" transform="matrix(.8660254 -.5 .5 .8660254 -190.540793 183.211185)"/><path d="m845.694916 174.139746 8.687664 250.940475-238.511884 147.126751z" fill="#262626" transform="matrix(-.8660254 .5 -.5 -.8660254 1558.351661 328.787649)"/><path d="m346.612715 172.916768-58.646319 367.566355-194.5118845 70.916515z" fill="#262626" transform="matrix(.8660254 .5 .5 -.8660254 -166.600187 621.760363)"/><g transform="matrix(.8660254 -.5 .5 .8660254 -123.041032 287.54739)"><use fill="#000" filter="url(#b)" xlink:href="#a"/><use fill="#333" fill-rule="evenodd" xlink:href="#a"/></g></g><path d="m150 338c-4.658386 0-9.006212-1.242078-13.04348-3.415711l-41.3043461-24.531006c-6.2111817-3.41571-3.1055894-4.657787-1.2422374-5.278825 8.3850935-2.794669 9.9378885-3.41571 18.6335425-8.384015.931675-.621038 2.173912-.310518 3.10559.310519l31.677017 18.941664c1.242238.621038 2.795032.621038 3.72671 0l123.913042-71.729902c1.242238-.62104 1.863355-1.863115 1.863355-3.415711v-143.1492862c0-1.5525976-.621117-2.7946726-1.863355-3.4157101l-123.913042-71.4193848c-1.242237-.6210374-2.795032-.6210374-3.72671 0l-123.9130445 71.4193848c-1.2422347.6210375-1.8633522 2.1736325-1.8633522 3.4157101v143.1492862c0 1.242076.6211175 2.794671 1.8633522 3.415711l33.8509328 19.562701c18.3229824 9.31557 29.8136659-1.552596 29.8136659-12.420763v-141.286175c0-1.863112 1.5527947-3.726227 3.7267068-3.726227h15.83851c1.863355 0 3.726707 1.552595 3.726707 3.726227v141.286175c0 24.531006-13.3540352 38.814881-36.645962 38.814881-7.1428565 0-12.7329182 0-28.5714285-7.762976l-32.6086953-18.631142c-8.07453389-4.657788-13.0434782-13.352321-13.0434782-22.667894v-143.1492867c0-9.3155702 4.96894431-18.0101055 13.0434782-22.6678906l123.9130418-71.72990495c7.763977-4.347265 18.322983-4.347265 26.08696 0l123.913041 71.72990495c8.074534 4.6577851 13.043479 13.3523204 13.043479 22.6678906v143.1492867c0 9.315573-4.968945 18.010106-13.043479 22.667894l-123.913041 71.729901c-4.03727 1.863116-8.695654 2.794674-13.04348 2.794674zm38.198759-98.434544c-54.347828 0-65.527952-24.841525-65.527952-45.956822 0-1.863114 1.552796-3.726227 3.726707-3.726227h16.14907c1.863353 0 3.416147 1.242075 3.416147 3.10519 2.484473 16.457511 9.627332 24.531006 42.546585 24.531006 26.086958 0 37.267082-5.899862 37.267082-19.87322 0-8.073496-3.105591-13.973358-43.788822-18.010106-33.85093-3.41571-54.968941-10.868168-54.968941-37.883326 0-25.152044 21.118011-40.056959 56.521739-40.056959 39.751551 0 59.316769 13.66284 61.801241 43.472669 0 .931557-.31056 1.863115-.931677 2.794673-.621117.621037-1.552795 1.242074-2.484472 1.242074h-16.149068c-1.552794 0-3.105591-1.242074-3.41615-2.79467-3.726706-17.078548-13.354038-22.667893-38.819874-22.667893-28.571431 0-31.987578 9.936611-31.987578 17.389068 0 9.005053 4.037267 11.799726 42.546584 16.768031 38.198758 4.968305 56.211179 12.110243 56.211179 38.81488-.310559 27.325679-22.670806 42.851632-62.1118 42.851632z" fill="#539e43" fill-rule="nonzero" transform="translate(100 81)"/></g></svg>