<svg height="500" viewBox="0 0 500 500" width="500" xmlns="http://www.w3.org/2000/svg"><g fill="none" fill-rule="evenodd"><path d="m0 0h500v500h-500z" fill="#f7f7fa"/><path d="m0 0h500v500h-500z" fill="#2a2828"/><g fill="#fff" fill-rule="nonzero"><g transform="translate(-37 34)"><path d="m423 353c1.2 0 2-.813484 2-2.033711v-18.932578c0-1.220227-.8-2.033711-2-2.033711s-2 .813484-2 2.033711v18.932578c0 1.220227.80625 2.033711 2 2.033711"/><path d="m423 292c-1.2 0-2 .813709-2 2.027916v18.937811c0 1.220564.8 2.034273 2 2.034273s2-.813709 2-2.034273v-18.937811c0-1.214207-.8-2.027916-2-2.027916"/><path d="m453 323c0-1.2-.813484-2-2.033711-2h-18.926223c-1.226582 0-2.040066.8-2.040066 2s.813484 2 2.040066 2h18.926223c1.220227 0 2.033711-.80625 2.033711-2"/><path d="m393 322.99687c0 1.201878.813484 2.00313 2.033711 2.00313h18.926223c1.226582 0 2.040066-.801252 2.040066-2.00313 0-1.195618-.813484-1.99687-2.040066-1.99687h-18.926223c-1.220227 0-2.033711.801252-2.033711 1.99687"/><path d="m364 385.089907c-3.809164 0-6.910094 3.094548-6.910094 6.910093s3.10093 6.910093 6.910094 6.910093c3.815544 0 6.910094-3.094548 6.910094-6.910093s-3.09455-6.910093-6.910094-6.910093m0 17.910093c-6.061484 0-11-4.938515-11-11s4.938516-11 11-11c6.067864 0 11 4.938515 11 11s-4.932136 11-11 11"/><path d="m492 270.089907c-3.809164 0-6.910094 3.094548-6.910094 6.910093s3.10093 6.910093 6.910094 6.910093c3.815544 0 6.910094-3.094548 6.910094-6.910093s-3.09455-6.910093-6.910094-6.910093m0 17.910093c-6.061484 0-11-4.938515-11-11s4.938516-11 11-11c6.067864 0 11 4.938515 11 11s-4.932136 11-11 11"/><path d="m426 42.0899071c-3.809164 0-6.910094 3.0945478-6.910094 6.9100929s3.10093 6.9100929 6.910094 6.9100929c3.815544 0 6.910094-3.0945478 6.910094-6.9100929s-3.09455-6.9100929-6.910094-6.9100929m0 17.9100929c-6.061484 0-11-4.9385149-11-11s4.938516-11 11-11c6.067864 0 11 4.9385149 11 11s-4.932136 11-11 11"/><path d="m484.502495 119c1.930863 0 3.497505 1.562768 3.497505 3.5s-1.566642 3.5-3.497505 3.5c-1.935853 0-3.502495-1.562768-3.502495-3.5s1.566642-3.5 3.502495-3.5"/><path d="m478.502496 185c1.930862 0 3.497504 1.562768 3.497504 3.5s-1.566642 3.5-3.497504 3.5c-1.935854 0-3.502496-1.562768-3.502496-3.5s1.566642-3.5 3.502496-3.5"/><path d="m227.502495 57c1.930862 0 3.497505 1.566643 3.497505 3.4975052 0 1.9358518-1.566643 3.5024948-3.497505 3.5024948-1.935852 0-3.502495-1.566643-3.502495-3.5024948 0-1.9308622 1.566643-3.4975052 3.502495-3.4975052"/><path d="m329.335505 44.3353245c.885993-.8862341.885993-2.0657073 0-2.9519414l-13.71987-13.7235949c-.885993-.8797176-2.065146-.8797176-2.95114 0-.885993.8862341-.885993 2.0657073 0 2.9519414l13.71987 13.7235949c.885993.886234 2.071661.886234 2.95114 0"/><path d="m285.664676.66938111c-.886235.88599348-.886235 2.05863192 0 2.9446254l13.723594 13.72638439c.886234.8794788 2.065708.8794788 2.951942 0 .879717-.8859935.879717-2.0716613 0-2.9576547l-13.723595-13.71335509c-.886234-.89250815-2.065707-.89250815-2.951941 0"/><path d="m329.335505.664435c-.885994-.88591333-2.065147-.88591333-2.95114 0l-13.71987 13.7186284c-.885993.8859133-.885993 2.0714738 0 2.9573872.885994.8793992 2.065147.8793992 2.95114 0l13.71987-13.72514254c.885993-.88591333.885993-2.06495974 0-2.95087306"/><path d="m285.659967 44.3353245c.886475.886234 2.066269.886234 2.952743 0l13.727323-13.7170785c.879956-.8862341.879956-2.0722237 0-2.9584578-.886475-.8797176-2.066269-.8797176-2.952743 0l-13.727323 13.7235949c-.879956.8862341-.879956 2.0657073 0 2.9519414"/><path d="m118 47c1.2 0 2-.8134844 2-2.0337111v-18.9325778c0-1.2202267-.8-2.0337111-2-2.0337111s-2 .8134844-2 2.0337111v18.9325778c0 1.2202267.80625 2.0337111 2 2.0337111" transform="matrix(-1 0 0 -1 236 71)"/><path d="m118 62c-1.2 0-2 .8137092-2 2.027916v18.9378108c0 1.220564.8 2.0342732 2 2.0342732s2-.8137092 2-2.0342732v-18.9378108c0-1.2142068-.8-2.027916-2-2.027916" transform="matrix(-1 0 0 -1 236 147)"/><path d="m111 54c0-1.2-.813484-2-2.033711-2h-18.9262227c-1.2265819 0-2.0400663.8-2.0400663 2s.8134844 2 2.0400663 2h18.9262227c1.220227 0 2.033711-.8062501 2.033711-2" transform="matrix(-1 0 0 -1 199 108)"/><path d="m125 53.9968701c0 1.201878.813484 2.0031299 2.033711 2.0031299h18.926223c1.226582 0 2.040066-.8012519 2.040066-2.0031299 0-1.1956178-.813484-1.9968701-2.040066-1.9968701h-18.926223c-1.220227 0-2.033711.8012523-2.033711 1.9968701" transform="matrix(-1 0 0 -1 273 108)"/><path d="m81 149.089907c-3.8091647 0-6.9100929 3.094548-6.9100929 6.910093s3.1009282 6.910093 6.9100929 6.910093c3.8155451 0 6.9100929-3.094548 6.9100929-6.910093s-3.0945478-6.910093-6.9100929-6.910093m0 17.910093c-6.0614851 0-11-4.938515-11-11s4.9385149-11 11-11c6.0678655 0 11 4.938515 11 11s-4.9321345 11-11 11" transform="matrix(-1 0 0 -1 162 312)"/><path d="m147 377.089906c-3.809165 0-6.910093 3.09455-6.910093 6.910094s3.100928 6.910094 6.910093 6.910094c3.815545 0 6.910093-3.09455 6.910093-6.910094s-3.094548-6.910094-6.910093-6.910094m0 17.910094c-6.061485 0-11-4.938516-11-11s4.938515-11 11-11c6.067865 0 11 4.938516 11 11s-4.932135 11-11 11" transform="matrix(-1 0 0 -1 294 768)"/><path d="m88.5024948 307c1.9308622 0 3.4975052 1.562768 3.4975052 3.5s-1.566643 3.5-3.4975052 3.5c-1.9358518 0-3.5024948-1.562768-3.5024948-3.5s1.566643-3.5 3.5024948-3.5" transform="matrix(-1 0 0 -1 177 621)"/><path d="m102.502495 249c1.930862 0 3.497505 1.562768 3.497505 3.5s-1.566643 3.5-3.497505 3.5c-1.935852 0-3.502495-1.562768-3.502495-3.5s1.566643-3.5 3.502495-3.5" transform="matrix(-1 0 0 -1 205 505)"/><path d="m303.502495 112c1.930862 0 3.497505 1.566643 3.497505 3.497505 0 1.935852-1.566643 3.502495-3.497505 3.502495-1.935852 0-3.502495-1.566643-3.502495-3.502495 0-1.930862 1.566643-3.497505 3.502495-3.497505" transform="matrix(-1 0 0 -1 607 231)"/><path d="m318.502495 322c1.930862 0 3.497505 1.566643 3.497505 3.497505 0 1.935852-1.566643 3.502495-3.497505 3.502495-1.935852 0-3.502495-1.566643-3.502495-3.502495 0-1.930862 1.566643-3.497505 3.502495-3.497505" transform="matrix(-1 0 0 -1 637 651)"/><path d="m260.335505 405.335324c.885993-.886234.885993-2.065707 0-2.951941l-13.71987-13.723595c-.885993-.879717-2.065146-.879717-2.95114 0-.885993.886234-.885993 2.065708 0 2.951942l13.71987 13.723594c.885993.886235 2.071661.886235 2.95114 0" transform="matrix(-1 0 0 -1 504 794)"/><path d="m270.664676 415.669381c-.886235.885994-.886235 2.058632 0 2.944626l13.723594 13.726384c.886234.879479 2.065708.879479 2.951942 0 .879717-.885994.879717-2.071661 0-2.957655l-13.723595-13.713355c-.886234-.892508-2.065707-.892508-2.951941 0" transform="matrix(-1 0 0 -1 558 848)"/><path d="m260.335505 415.664435c-.885994-.885913-2.065147-.885913-2.95114 0l-13.71987 13.718628c-.885993.885914-.885993 2.071474 0 2.957388.885994.879399 2.065147.879399 2.95114 0l13.71987-13.725143c.885993-.885913.885993-2.06496 0-2.950873" transform="matrix(-1 0 0 -1 504 848)"/><path d="m270.659967 405.335324c.886475.886235 2.066269.886235 2.952743 0l13.727323-13.717078c.879956-.886234.879956-2.072224 0-2.958458-.886475-.879717-2.066269-.879717-2.952743 0l-13.727323 13.723595c-.879956.886234-.879956 2.065707 0 2.951941" transform="matrix(-1 0 0 -1 558 794)"/></g><g transform="translate(82 146)"><path d="m332.021649 136.002112c-1.260256.094438-1.616903 1.868293-6.830654 2.258635l-11.454261.856235c-.012794-.011018-.023991-.023609-.038384-.033053l-210.264545 15.704987c-2.279017.169988-4.4636752 1.21195-6.0741809 2.897663l-24.0520301 25.184956-.011195-23.407954c-.0015994-1.451192-1.2122774-2.535652-2.7028348-2.4239l-28.7731945 2.148457-33.91497756 2.19725c-4.31493962.322662-7.90539214 4.25914-7.90539214 10.02456 0 2.44751.72288886 5.538771 1.97994687 5.444333 1.26025666-.094438 1.61690288-1.868292 6.83225429-2.257061l48.44471304-3.618537c1.5257423-.055089 2.750814 1.057702 2.7524134 2.556113l.015993 31.688565c.0031987 3.626407 4.5164528 5.107505 7.155315 2.345203l35.6406334-37.317051c1.644091-1.721914 3.87513-2.787486 6.200527-2.960622l144.390547-10.784783 72.683862-5.035103c4.314938-.322662 7.903795-4.259139 7.903795-10.02456 0-2.44751-.721293-5.53877-1.978351-5.444333"/><path d="m64.7631432 51.4037026c-9.7335033.7580858-13.8517702-4.6271538-13.8517702-9.0435536 0-2.0257562.9356064-4.6759105 4.6796306-4.9668772 5.8023578-.4513912 9.5463823 5.5157815 11.4175946 13.8374239zm43.7959678-23.8419533c0-2.9442666.750084-7.4204324 2.808418-7.5808572 2.995539-.2327732 5.053873 5.1273018 5.053873 17.2771196 0 10.1224892-3.931146 34.7256739-7.862291 42.7626408zm215.432532 63.4747381c-1.684092 8.2304204-8.047815 20.3236176-16.65699 20.9936276-7.300928.567777-11.417594-6.473612-13.290407-14.2432045 7.48805-5.9199889 17.970036-17.2283631 17.970036-31.4023643 0-10.3065057-5.053871-19.4853197-16.658587-18.5809643-8.422056.6558542-15.910104 8.4175825-21.899583 16.9830076v-57.42892575c0-4.41797263-3.929546-7.79318417-10.107747-7.31190983-2.619696.20446295-5.989479 1.20161305-5.989479 2.49130247 0 1.28811661 1.872811 1.50988029 1.872811 6.84793621v84.0342747c-.30707.7203387-.562961 1.5617824-.748483 2.5353406-1.684092 8.2319931-4.866754 20.2591331-13.47593 20.9291421-5.053873.394771-7.488048-4.2025-7.488048-9.356539 0-18.4079569 9.133755-36.4195705 9.133755-38.6277706.748486-4.2921492-4.049496-8.6141814-8.985017-9.608186 0 0-11.697478-2.4158085-20.364229-3.5702378-2.058335-7.385831-7.299329-9.1866778-11.790239-8.8359451-4.866752.3774699-9.359261 4.0405025-9.359261 9.1961146 0 5.3380558 3.369782 8.9397495 8.049412 11.1526678-.18872 9.4021502-.935606 24.7384449-2.995539 32.2611086-.041582.1604248-.04638.3161313-.073569.4749832-.035185.1572793-.079966.2956853-.111953.4608283-1.684091 8.228847-5.053873 20.273288-12.540322 20.856794-4.492509.347587-6.363722-3.924116-6.363722-7.974055v-30.3690401c0-4.4195456-3.931145-7.7931843-10.107746-7.3134828-2.619697.204463-4.866751 1.6687323-4.866751 3.5088988 0 1.2881168.748485 2.3340235.748485 5.8319126v28.3448565c-2.058334 5.314464-5.428116 9.996666-10.48039 10.389864-6.552442.509585-10.670709-4.691638-10.670709-14.265223 0-26.5031173 16.660189-39.766472 30.884602-40.8737176 1.871212-.1462695 3.744024.0770669 5.428116-.0550476 1.871212-.1446969 2.432576-1.2928351 2.432576-4.4226911 0-4.786006-3.556903-7.4534611-8.609177-7.0602631-22.835189 1.7788277-44.547651 22.2455694-44.547651 52.9842154 0 1.231496.065572 2.428391.159932 3.606412-2.984344 6.479903-7.932661 12.645248-14.010103 13.117085-6.925086.539468-9.920625-4.565815-9.920625-11.928054v-10.676112c2.434176-2.398508 19.467007-40.9051734 19.467007-67.9650591 0-10.3049328-.188721-29.61881821-16.658589-28.33541996-9.357662.72820267-17.0328314 11.08189216-17.0328314 24.88628726v1.6152574c-3.0739064 3.2179323-9.2313149 9.0860191-14.4115347 11.4703716-4.1166673-12.563462-11.9789584-22.6261851-25.6420081-21.5629777-10.107746.7863961-17.0328315 9.2401528-17.0328315 18.8137374 0 14.1724285 12.5403222 22.2141138 28.0761837 21.0046368l3.5553037-.2768114c.3742426 3.8376123.5629631 7.6878071.5629631 11.1841236-.1887205 34.4362801-11.7934366 54.8511201-27.3276986 56.0621701-13.2888073 1.033324-27.1405775-12.613792-27.1405775-45.9286715 0-47.1208471 23.0223106-60.511598 29.5731537-64.7030886.3742425.1572792.5613638.1415513.9356062.1116684 1.6856906-.1305419 2.4341754-2.0304746 2.4341754-4.4226911 0-4.0499393-2.4341754-9.38327689-6.5508429-9.06242735-.7500842.05819331-1.4969699.30197606-2.059933.53003091-1.4969699.66843657-39.3066571 17.97072094-39.3066571 80.55211324 0 32.948419 14.2260127 58.899486 41.5537114 56.771499 21.8995832-1.704907 42.4877183-24.477362 42.4877183-71.0461588 0-4.4179726-.3742424-9.3581122-1.1227275-14.4555311 3.1778626-1.4988707 7.4976446-4.4950393 11.4159954-7.7931842v64.8871051c0 14.540462 7.6751694 23.69883 22.0867044 22.577429 8.534008-.665291 15.092848-5.842922 19.938808-12.127799 3.664058 6.190509 9.781484 9.812649 18.243522 9.153649 7.112207-.555195 12.353201-4.276421 16.095626-8.801344 2.808418 4.199355 7.862291 6.93444 14.413134 6.424856 15.484683-1.204759 22.990324-17.110404 26.371301-29.353017.067172-.17458.148738-.320849.206314-.511157 3.369781-10.9387683 4.492508-27.0394396 4.67963-34.23339l16.992849 3.0952546c-5.989481 16.2956976-10.067762 25.2653301-10.067762 37.0455414 0 16.198185 10.481986 20.166339 19.278286 19.482175 7.15059-.556769 12.559512-4.255976 16.664984-9.274755.065574 6.693803 5.256989 7.568275 8.977023 7.277309 5.428115-.423081 5.240995-4.825326 5.240995-8.323215v-31.6603026c5.802357-19.9618756 14.224413-26.5078358 18.716923-26.8585683 3.556902-.2768114 5.991078 2.6627366 5.991078 7.2647261 0 16.9358238-17.408675 24.1801037-17.408675 29.8861929 0 12.1482449 9.733505 27.9563769 24.519282 26.8050939 17.032831-1.327437 26.204971-20.631885 29.574753-30.8330141 1.496969-6.0080653-8.610776-13.8720253-10.85783-2.4692835z"/></g></g></g></svg>