<svg height="500" viewBox="0 0 500 500" width="500" xmlns="http://www.w3.org/2000/svg"><g fill="none" fill-rule="evenodd"><path d="m0 0h500v500h-500z" fill="#f7f7fa"/><path d="m0 0h500v500h-500z" fill="#3dac52"/><g fill="#131415" transform="translate(104 122)"><path d="m185.955254 159.183979c-.04218 1.625683.354142 6.166595 2.720649 8.638297 2.291813 2.393997 6.797228 2.89602 10.171676 2.89602h49.722142c12.382642-.167632 12.382642-9.410976 12.382642-12.452802v-72.5227512l-63.195328-.0244463c-.022848 0-.046574 0-.072058 0-1.73995 0-6.332363.5055158-8.843866 2.9213402-1.884946 1.8142693-2.84104 5.0892087-2.84104 9.7331443zm62.051879 42.534317c-.063248 0-.120348 0-.173933 0h-49.48033c-17.628691 0-27.918829-7.165493-33.446901-13.17815-11.028034-11.989316-11.109729-27.479284-10.912957-31.612986v-59.4654269c0-17.1801499 7.011771-27.3502156 12.892979-32.8562574 12.054061-11.2842687 27.837133-11.4774324 31.667165-11.3474859h61.882257v-53.53969333h31.51695v157.97449453c0 16.171308-6.645457 26.079725-12.21833 31.5445-12.098862 11.860248-28.448533 12.481005-31.7269 12.481005z"/><path d="m95.1201926 169.718296c1.6500955-.020252 6.3805444-.476368 8.9353904-2.962997 1.890953-1.841196 2.850005-5.159049 2.850005-9.864623l.043793-61.471843c.042916-1.6474792-.353842-6.2517918-2.728263-8.7604333-2.297347-2.430274-6.8088341-2.9401032-10.1887272-2.9401032h-49.6745322c-12.4054953.169943-12.4054953 9.5423475-12.4054953 12.6259778v73.3502477zm-63.7079539 86h-31.4598754v-159.567298c0-16.3225902 6.64219176-26.3215923 12.2137411-31.8355983 12.3382549-12.210975 29.0520261-12.6259411 31.8991808-12.5971032h49.4985775c17.6248253 0 27.9121123 7.2326266 33.4380643 13.2978562 11.0256 12.1030307 11.106271 27.7390245 10.909855 31.9072662v60.0665651c0 17.339213-7.008718 27.601883-12.888044 33.158358-12.048015 11.387237-27.813027 11.58189-31.6597987 11.451826h-61.9517006z"/></g></g></svg>