<svg height="500" viewBox="0 0 500 500" width="500" xmlns="http://www.w3.org/2000/svg" xmlns:xlink="http://www.w3.org/1999/xlink"><mask id="a" fill="#fff"><path d="m0 323h574v-323h-574z" fill="#fff" fill-rule="evenodd"/></mask><g fill="none" fill-rule="evenodd"><path d="m0 0h500v500h-500z" fill="#f7f7fa"/><path d="m0 0h500v500h-500z" fill="#777bb3"/><g fill-rule="nonzero" mask="url(#a)" transform="matrix(1 0 0 -1 -37 412)"><path d="m65.9026946 67.7935223c12.0108159 0 20.9773653 2.2182439 26.650771 6.5909261 5.6126796 4.3278188 9.4891914 11.8259818 11.5210254 22.2851265 1.894454 9.7762251 1.17271 16.6024341-2.144326 20.2862141-3.3916994 3.762541-10.7246186 5.670729-21.7946785 5.670729h-19.1944087l-10.6409955-54.8329957zm-62.77978292-67.54428141c-.89098054 0-1.73716318.39878543-2.30360779 1.08868421-.56744012.68890182-.79740269 1.59613867-.62717066 2.47246964l28.20077847 145.30843626c.2727694 1.404722 1.502223 2.419631 2.9317739 2.419631h60.7798054c19.101826 0 33.319686-5.194181 42.25637-15.439975 8.984468-10.299631 11.758952-24.696782 8.245801-42.7906732-1.429551-7.3715486-3.888458-14.2176974-7.308032-20.3470294-3.423555-6.1363107-7.948143-11.8140182-13.450322-16.8785931-6.586287-6.1731984-14.040658-10.6495648-22.1361373-13.2835425-7.9670584-2.599084-18.1988997-3.9170699-30.4108084-3.9170699h-24.6109731l-7.0282934-36.21171048c-.2727695-1.40571862-1.5012275-2.42062753-2.9307784-2.42062753z" fill="#000" transform="translate(95.518527 77.29656)"/><path d="m66.6991018 122.626518h16.732515c13.360726 0 18.0017892-2.936057 19.5786752-4.685729 2.616198-2.905151 3.10997-9.030495 1.428555-17.713051-1.889476-9.7203949-5.3916763-16.612404-10.4110326-20.4826165-5.1388174-3.9619332-13.4931288-5.9698179-24.8289895-5.9698179h-11.9799551zm28.7015195 34.893725h-60.7808009c-2.8591018 0-5.3170135-2.029818-5.8625524-4.840258l-28.20077848-145.30843642c-.34046407-1.7536589.11946108-3.56713562 1.25334581-4.94593623 1.13488024-1.37880061 2.82525449-2.17637146 4.60920659-2.17637146h31.60741018c2.8600973 0 5.318009 2.02981781 5.8635479 4.8402581l6.5584132 33.79207991h22.1490793c12.525494 0 23.0699252 1.3678341 31.3376275 4.0646205 8.502642 2.7665739 16.325352 7.4572874 23.249117 13.9415385 5.726167 5.2759311 10.442889 11.1978947 14.016766 17.6033856 3.574873 6.4074848 6.143286 13.5527227 7.633563 21.2373178 3.698316 19.0459917.69387 34.2975407-8.92872 45.3279457-9.529012 10.924726-24.503458 16.463856-44.5052247 16.463856zm-45.4280614-89.7267207h19.226265c12.7435104 0 22.2356886 2.4036791 28.4725523 7.2120344 6.2378598 4.8093522 10.4448798 12.8359059 12.6310178 24.0836488 2.091565 10.7991095 1.138862 18.4198985-2.858106 22.8593775-4.001946 4.439479-12.0048429 6.659717-24.0126722 6.659717h-21.6563024zm45.4280614 83.7449397c18.2845137 0 31.6233387-4.805365 40.0075147-14.417091 8.383181-9.611725 10.907792-23.027864 7.562882-40.2524034-1.376789-7.0953897-3.705284-13.5826316-6.983496-19.4597318-3.282193-5.881088-7.567859-11.2587095-12.863967-16.1348583-6.311527-5.9149848-13.322896-10.1301467-21.038091-12.640501-7.7151945-2.517333-17.5418637-3.7705162-29.4879715-3.7705162h-27.0738623l-7.4971781-38.63233803h-31.60741018l28.20077848 145.30743973z" fill="#fff" transform="translate(92.222596 74.306168)"/><path d="m80.6362275 0c-.891976 0-1.7371631.39878543-2.3036077 1.08868421-.5684357.68890182-.7983982 1.5951417-.6281662 2.47246964l12.474723 64.29318315c1.1866468 6.1143776.8939671 10.5030112-.8232859 12.3573634-1.0512575 1.1335476-4.209012 3.0347571-13.5458907 3.0347571h-22.6000449l-15.684244-80.82582997c-.2727695-1.40571862-1.5022231-2.42062753-2.931774-2.42062753h-31.35853291c-.89197605 0-1.73716317.39878543-2.30460329 1.08868421-.56744012.68890182-.7974027 1.59613866-.62717066 2.47246964l28.20077846 145.30843615c.2727694 1.404722 1.502223 2.419631 2.9317739 2.419631h31.358533c.891976 0 1.7371631-.398786 2.3046033-1.087688.5674401-.689898.7974027-1.596138.6271706-2.473466l-6.8052994-35.071184h24.3123204c18.5214445 0 31.0807855-3.270041 38.3957855-9.997551 7.456363-6.8630972 9.782867-17.8366751 6.915801-32.6196508l-13.120808-67.61905367c-.27277-1.40571862-1.501228-2.42062753-2.931774-2.42062753z" fill="#000" transform="translate(229.960621 116.178139)"/><path d="m65.7035928 157.520243h-31.3585329c-2.8600973 0-5.318009-2.029818-5.8635479-4.840258l-28.20077847-145.30843642c-.34046407-1.7536589.11946108-3.56713562 1.25434132-4.94593623s2.82525449-2.17637146 4.60920659-2.17637146h31.35853296c2.8591018 0 5.318009 2.02981781 5.8635479 4.8402581l15.2143637 78.40619941h20.1381512c9.3209506 0 11.2771258-1.9939271 11.355771-2.079666.5654491-.6091447 1.3090943-3.4305516.0816317-9.7513006l-12.474723-64.29318322c-.3404641-1.7536589.1194611-3.56713562 1.2543413-4.94593623s2.8252545-2.17637146 4.6092066-2.17637146h31.8562872c2.859102 0 5.318009 2.02981781 5.863548 4.8402581l13.119813 67.61905361c3.079109 15.8726569.444993 27.7793924-7.825696 35.3922064-7.892395 7.258892-21.112755 10.787146-40.4166693 10.787146h-20.6906587l6.1154117 31.509033c.3394686 1.753659-.1194611 3.568133-1.2543413 4.945936-1.1348802 1.378801-2.8252545 2.177369-4.6092066 2.177369m0-5.981781-7.4971781-38.632339h27.935973c17.5777023 0 29.7020063-3.072641 36.3749023-9.209949 6.672897-6.1412955 8.671879-16.0919888 6.004911-29.8470951l-13.120809-67.61805663h-31.8562872l12.474723 64.29218623c1.4195959 7.3137247.8979491 12.3025304-1.5669311 14.9624292-2.4658757 2.6598987-7.7112126 3.9918421-15.7340195 3.9918421h-25.0629341l-16.1531287-83.24645753h-31.35853296l28.20077846 145.30743973z" fill="#fff" transform="translate(227.051844 112.938506)"/><path d="m66.6991018 67.7935223c12.0108159 0 20.9773653 2.2182439 26.650771 6.5909261 5.6126796 4.3268218 9.4891912 11.8249848 11.5220212 22.2851265 1.894453 9.7762251 1.172709 16.6024341-2.145322 20.2862141-3.3916992 3.762541-10.7246184 5.670729-21.7946783 5.670729h-19.1944087l-10.6409955-54.8329957zm-62.77878743-67.54428141c-.89098054 0-1.73716317.39878543-2.30360778 1.08868421-.56744012.68890182-.79839821 1.59613867-.62816617 2.47246964l28.20077848 145.30843626c.2737649 1.404722 1.502223 2.419631 2.9327694 2.419631h60.7788099c19.1028218 0 33.3196858-5.194181 42.2573648-15.439975 8.984469-10.298634 11.757957-24.695785 8.245801-42.7906732-1.431542-7.3715486-3.889453-14.2176974-7.309027-20.3470294-3.423555-6.1363107-7.948143-11.8140182-13.450321-16.8785931-6.586288-6.1731984-14.040659-10.6495648-22.136138-13.2835425-7.9670585-2.599084-18.1988999-3.9170699-30.4108085-3.9170699h-24.6119686l-7.0253069-36.21171048c-.273765-1.40571862-1.502223-2.42062753-2.9327694-2.42062753z" fill="#000" transform="translate(341.424576 77.29656)"/><path d="m66.6991018 122.626518h16.732515c13.360726 0 18.0017892-2.936057 19.5786752-4.685729 2.617193-2.905151 3.110965-9.030495 1.428555-17.712054-1.889476-9.7213919-5.3926719-16.613401-10.4110326-20.4836135-5.1388174-3.9619332-13.4931288-5.9698179-24.8289895-5.9698179h-11.9789596zm28.7015195 34.893725h-60.7798054c-2.8591018 0-5.3170135-2.029818-5.8625524-4.840258l-28.20077847-145.30843642c-.34046407-1.7536589.11946108-3.56713562 1.25334581-4.94593623 1.13488024-1.37880061 2.82525449-2.17637146 4.60920659-2.17637146h31.60741017c2.8591018 0 5.318009 2.02981781 5.8635479 4.8402581l6.5574177 33.79207991h22.1490793c12.525494 0 23.0699252 1.3678341 31.3376275 4.0646205 8.502642 2.7665739 16.327343 7.4582844 23.251108 13.9435324 5.726167 5.2749342 10.440898 11.1959008 14.014775 17.6013917 3.574873 6.4074848 6.143286 13.5527227 7.633563 21.2373178 3.698316 19.0469887.69387 34.2985377-8.92872 45.3289427-9.529012 10.923729-24.502463 16.462859-44.5052247 16.462859zm-45.4270659-89.7267207h19.2252695c12.7435104 0 22.2356886 2.4036791 28.4725523 7.2120344 6.2388548 4.8093522 10.4448798 12.8359059 12.6310178 24.0836488 2.09256 10.7991095 1.139858 18.4198985-2.858106 22.8593775-4.001946 4.439479-12.0048429 6.659717-24.0126722 6.659717h-21.6563024zm45.4270659 83.7449397c18.2845137 0 31.6233387-4.805365 40.0075147-14.417091 8.384177-9.611725 10.907792-23.027864 7.562882-40.2524034-1.376789-7.0953897-3.705284-13.5826316-6.983496-19.4597318-3.282193-5.881088-7.567859-11.2587095-12.863967-16.1348583-6.311527-5.9149848-13.322896-10.1301467-21.038091-12.640501-7.7151945-2.517333-17.5418637-3.7705162-29.4879715-3.7705162h-27.0738623l-7.4961826-38.63233803h-31.60741017l28.20077847 145.30743973z" fill="#fff" transform="translate(338.925152 74.306168)"/></g></g></svg>