<svg height="500" viewBox="0 0 500 500" width="500" xmlns="http://www.w3.org/2000/svg"><g fill="none" fill-rule="evenodd"><path d="m0 0h500v500h-500z" fill="#f7f7fa"/><path d="m0 0h500v500h-500z" fill="#fff000"/><g fill-rule="nonzero"><path d="m223.10184 254.887706 2.8227-.789933c21.027793-6.315482 41.655779-13.899489 61.771166-22.710551 20.404452-8.025284 39.550202-18.955125 56.847852-32.45305 18.363784-14.647677 32.185389-34.23926 39.846013-56.480155 1.651978-3.660995 2.863964-7.505996 3.610429-11.454017-27.636196 37.85092-137.196319 41.800581-137.196319 41.800581l25.863804-23.763795c-75.26236.240767-148.568205 24.061574-209.667485 68.131655 41.377354 4.444971 80.29657 21.885473 111.201227 49.831559 14.835583-4.607938 29.999386-7.899322 44.900613-12.046467zm171.89816-2.243771c-69.667403-3.21562-139.366843 5.629647-206 26.142607 13.996798 14.549838 25.678265 31.146079 34.63949 49.213458 55.173886-30.58685 131.669427-69.800761 171.36051-75.159995zm-165 90.836171c6.56177 16.851156 10.767427 34.523742 12.498491 52.519894l96.501509-99zm50.394985 48.480395v-.978351c-.015085-.394263-.139947-.776012-.36-1.100646-.200787-.306256-.538583-.489858-.9-.489176h.9c.478409-.324416.752381-.882834.72-1.467527.083211-.788841-.357863-1.538015-1.08-1.83441-.614361-.120521-1.245639-.120521-1.86 0h-2.58v6.909609h1.32v-2.507026h.96c.413844-.103641.846156-.103641 1.26 0 .41052.339125.615653.873376.54 1.40638v1.039499h1.32zm-3.746489-5.821097h.84c.453999-.105078.926001-.105078 1.38 0 .301657.200097.483008.538012.483008.9 0 .361989-.181351.699904-.483008.9h-2.22z" fill="#191a1d"/><path d="m282.279993 384.678637c-2.30703-2.238183-6.032968-2.238183-8.339998 0-2.466362 2.247633-2.598771 6.02099-.295744 8.42803 2.303026 2.407039 6.16938 2.536264 8.635742.288631 2.293343-2.251539 2.293343-5.88786 0-8.139399m-4.250191 8.743748c-1.346429.015259-2.640285-.464401-3.576184-1.325769-1.938157-1.770761-1.938157-4.592927 0-6.363688.939425-.838744 2.215522-1.31019 3.546382-1.31019s2.606957.471446 3.546382 1.31019c1.938157 1.770761 1.938157 4.592927 0 6.363688-.935899.861368-2.229755 1.341028-3.576184 1.325769" fill="#fff"/></g></g></svg>