<svg height="500" viewBox="0 0 500 500" width="500" xmlns="http://www.w3.org/2000/svg"><g fill="none" fill-rule="evenodd"><path d="m0 0h500v500h-500z" fill="#f7f7fa"/><path d="m0 0h500v500h-500z" fill="#6638b8"/><g fill="#fff" transform="translate(65.598156 136.084308)"><path d="m185.401844 64.915692h31.940449v32h-31.940449z" fill-opacity=".841756" opacity=".932175"/><path d="m169.401844 96.915692h31.940449v32h-31.940449z"/><path d="m214.401844.915692h31.940449v32h-31.940449z" opacity=".855701"/><path d="m153.401844 128.915692h31.940449v32h-31.940449z" opacity=".578613"/><path d="m121.401844 192.915692h31.940449v32h-31.940449z" opacity=".578613"/><path d="m137.401844 160.915692h31.940449v32h-31.940449z"/><path d="m201.401844 32.915692h31.940449v32h-31.940449z" opacity=".555548"/><g transform="matrix(-1 0 0 1 367.401844 32.915692)"><path d="m0 64h31.940449v32h-31.940449z"/><path d="m32 32h31.940449v32h-31.940449z"/><path d="m64 0h31.940449v32h-31.940449z" opacity=".717727"/><path d="m32 96h31.940449v32h-31.940449z" opacity=".604515"/><path d="m64 128h31.940449v32h-31.940449z"/></g><path d="m.401844 96.915692h31.940449v32h-31.940449z"/><path d="m32.401844 64.915692h31.940449v32h-31.940449z"/><path d="m64.401844 32.915692h31.940449v32h-31.940449z" opacity=".717727"/><path d="m32.401844 128.915692h31.940449v32h-31.940449z" opacity=".604515"/><path d="m64.401844 160.915692h31.940449v32h-31.940449z"/></g></g></svg>