<svg height="500" viewBox="0 0 500 500" width="500" xmlns="http://www.w3.org/2000/svg" xmlns:xlink="http://www.w3.org/1999/xlink"><linearGradient id="a" x1="13.190826%" x2="79.45362%" y1="12.039393%" y2="78.200854%"><stop offset="0" stop-color="#387eb8"/><stop offset="1" stop-color="#366994"/></linearGradient><linearGradient id="b" x1="19.320443%" x2="90.486944%" y1="20.579181%" y2="88.429037%"><stop offset="0" stop-color="#ffe052"/><stop offset="1" stop-color="#ffc331"/></linearGradient><g fill="none" fill-rule="evenodd"><path d="m0 0h500v500h-500z" fill="#fff"/><path d="m0 0h500v500h-500z" fill="#fff"/><g fill-rule="nonzero" transform="translate(125 125)"><path d="m124.506488 0c-63.6740251 0-59.6978085 27.6995814-59.6978085 27.6995814l.0709843 28.6964813h60.7625742v8.6160653h-84.8972413s-40.7449967-4.6353599-40.7449967 59.814005c0 64.449353 35.5631417 62.163843 35.5631417 62.163843h21.2243102v-29.907003s-1.1440446-35.674782 34.9952672-35.674782h60.2656829s33.859519.549058 33.859519-32.8264964v-55.1855412c0-.0000046 5.140809-33.3961534-61.401433-33.3961534zm-33.5045963 19.2971376c6.0454308 0 10.9315843 4.9014923 10.9315843 10.9659011s-4.8861535 10.9659011-10.9315843 10.9659011c-6.0454309 0-10.9315845-4.9014923-10.9315845-10.9659011s4.8861536-10.9659011 10.9315845-10.9659011z" fill="url(#a)"/><path d="m126.493515 250c63.674041 0 59.697807-27.69958 59.697807-27.69958l-.070984-28.696478h-60.762572v-8.616065h84.897238s40.744996 4.635347 40.744996-59.814023c0-64.4493397-35.563141-62.1638297-35.563141-62.1638297h-21.22431v29.9069936s1.144063 35.6747791-34.995266 35.6747791h-60.265687s-33.8595167-.549058-33.8595167 32.826516v55.185537s-5.1408088 33.39615 61.4014357 33.39615zm33.504595-19.297136c-6.045432 0-10.931584-4.90149-10.931584-10.9659 0-6.064411 4.886152-10.9659 10.931584-10.9659 6.045433 0 10.931584 4.901489 10.931584 10.9659 0 6.06441-4.886151 10.9659-10.931584 10.9659z" fill="url(#b)"/></g></g></svg>