<svg height="500" viewBox="0 0 500 500" width="500" xmlns="http://www.w3.org/2000/svg" xmlns:xlink="http://www.w3.org/1999/xlink"><linearGradient id="a" x1="84.750365%" x2="58.254396%" y1="111.492872%" y2="64.605922%"><stop offset="0" stop-color="#fb7655"/><stop offset=".41" stop-color="#e42b1e"/><stop offset=".99" stop-color="#900"/><stop offset="1" stop-color="#900"/></linearGradient><linearGradient id="b"><stop offset="0" stop-color="#871101"/><stop offset=".99" stop-color="#911209"/><stop offset="1" stop-color="#911209"/></linearGradient><linearGradient id="c" x1="117.084507%" x2="1.432328%" xlink:href="#b" y1="60.890321%" y2="19.28795%"/><linearGradient id="d" x1="75.774402%" x2="38.978136%" xlink:href="#b" y1="211.812264%" y2="9.700277%"/><linearGradient id="e" x1="50.012502%" x2="66.580513%" y1="7.234499%" y2="79.135413%"><stop offset="0" stop-color="#fff"/><stop offset=".23" stop-color="#e57252"/><stop offset=".46" stop-color="#de3b20"/><stop offset=".99" stop-color="#a60003"/><stop offset="1" stop-color="#a60003"/></linearGradient><linearGradient id="f" x1="46.139372%" x2="49.931719%" y1="16.347907%" y2="83.046845%"><stop offset="0" stop-color="#fff"/><stop offset=".23" stop-color="#e4714e"/><stop offset=".56" stop-color="#be1a0d"/><stop offset=".99" stop-color="#a80d00"/><stop offset="1" stop-color="#a80d00"/></linearGradient><linearGradient id="g" x1="36.965357%" x2="49.528232%" y1="15.36379%" y2="92.761411%"><stop offset="0" stop-color="#fff"/><stop offset=".18" stop-color="#e46342"/><stop offset=".4" stop-color="#c82410"/><stop offset=".99" stop-color="#a80d00"/><stop offset="1" stop-color="#a80d00"/></linearGradient><linearGradient id="h" x1="13.608617%" x2="85.763661%" y1="58.562601%" y2="-49.230576%"><stop offset="0" stop-color="#fff"/><stop offset=".54" stop-color="#c81f11"/><stop offset=".99" stop-color="#bf0905"/><stop offset="1" stop-color="#bf0905"/></linearGradient><linearGradient id="i" x1="27.030155%" x2="50.76428%" y1="21.134585%" y2="79.055782%"><stop offset="0" stop-color="#fff"/><stop offset=".31" stop-color="#de4024"/><stop offset=".99" stop-color="#bf190b"/><stop offset="1" stop-color="#bf190b"/></linearGradient><linearGradient id="j" x1="-20.66713%" x2="104.241521%" y1="122.488017%" y2="-6.502776%"><stop offset="0" stop-color="#bd0012"/><stop offset=".07" stop-color="#fff"/><stop offset=".17" stop-color="#fff"/><stop offset=".27" stop-color="#c82f1c"/><stop offset=".33" stop-color="#820c01"/><stop offset=".46" stop-color="#a31601"/><stop offset=".72" stop-color="#b31301"/><stop offset=".99" stop-color="#e82609"/><stop offset="1" stop-color="#e82609"/></linearGradient><linearGradient id="k" x1="58.791961%" x2="11.963656%" y1="65.188193%" y2="50.127421%"><stop offset="0" stop-color="#8c0c01"/><stop offset=".54" stop-color="#990c00"/><stop offset=".99" stop-color="#a80d0e"/><stop offset="1" stop-color="#a80d0e"/></linearGradient><linearGradient id="l" x1="79.515689%" x2="22.908201%" y1="62.753807%" y2="17.887682%"><stop offset="0" stop-color="#7e110b"/><stop offset=".99" stop-color="#9e0c00"/><stop offset="1" stop-color="#9e0c00"/></linearGradient><linearGradient id="m" x1="92.928169%" x2="59.852503%" y1="74.122366%" y2="39.703997%"><stop offset="0" stop-color="#79130d"/><stop offset=".99" stop-color="#9e120b"/><stop offset="1" stop-color="#9e120b"/></linearGradient><radialGradient id="n" cx="32.000801%" cy="40.210047%" gradientTransform="matrix(.527473 0 0 1 .151212 0)" r="131.898728%"><stop offset="0" stop-color="#a80d00"/><stop offset=".99" stop-color="#7e0e08"/><stop offset="1" stop-color="#7e0e08"/></radialGradient><radialGradient id="o" cx="13.54938%" cy="40.859922%" gradientTransform="matrix(.778947 0 0 1 .029951 0)" r="113.468762%"><stop offset="0" stop-color="#a30c00"/><stop offset=".99" stop-color="#800e08"/><stop offset="1" stop-color="#800e08"/></radialGradient><linearGradient id="p" x1="56.544444%" x2="3.288612%" y1="101.716594%" y2="11.99326%"><stop offset="0" stop-color="#8b2114"/><stop offset=".43" stop-color="#9e100a"/><stop offset=".99" stop-color="#b3100c"/><stop offset="1" stop-color="#b3100c"/></linearGradient><linearGradient id="q" x1="30.869873%" x2="92.470763%" y1="35.368525%" y2="101.504835%"><stop offset="0" stop-color="#b31000"/><stop offset=".44" stop-color="#910f08"/><stop offset=".99" stop-color="#791c12"/><stop offset="1" stop-color="#791c12"/></linearGradient><g fill="none" fill-rule="evenodd"><path d="m0 0h500v500h-500z" fill="#fff"/><path d="m0 0h500v500h-500z" fill="#fff"/><g fill-rule="nonzero" transform="translate(126 126)"><path d="m192.982631 163.627355-141.982631 84.372645 183.840647-12.484438 14.159353-185.515562z" fill="url(#a)"/><path d="m235 236-15.843665-109-43.156335 56.801933z" fill="url(#c)"/><path d="m235 235.895909-115.92494-8.895909-68.07506 21z" fill="url(#d)"/><path d="m51.9159763 248 29.0840237-95-64 13.644608z" fill="url(#e)"/><path d="m176 183-26.671553-104-76.328447 71.224471z" fill="url(#f)"/><path d="m243 80.9695914-71.961265-58.9695914-20.038735 65z" fill="url(#g)"/><path d="m209 1.31762838-42.308126 23.68237162-26.691874-24z" fill="url(#h)"/><path d="m0 199 18-32.400743-14.56050955-38.599257z" fill="url(#i)"/><path d="m2 126.124034 14.4369335 40.875966 62.7316149-14.048451 71.6197446-66.4391081 20.211707-64.0820364-31.825279-22.4304045-54.107116 20.212426c-17.0468801 15.8265925-50.1262887 47.1414421-51.318905 47.7303969-1.1800624.6014857-21.8437082 39.5852781-31.7487 58.1812111z" fill="#fff"/><path d="m53.4240998 52.5029201c36.8633304-36.6022627 84.3860882-58.22745141 102.6236042-39.800884 18.226242 18.4265675-1.102267 63.2072658-37.965598 99.7969849-36.8633306 36.589719-83.7973772 59.406551-102.0223673 40.979983-18.23751584-18.414023.5010307-64.3863648 37.3643611-100.9760839z" fill="url(#j)"/><path d="m52 248 28.6964974-95 95.3035026 30.600237c-34.458392 32.293978-72.783154 59.59456-124 64.399763z" fill="url(#k)"/><path d="m151 86.135583 24.536187 96.864417c28.866843-30.251309 54.775243-62.773663 67.463813-103z" fill="url(#l)"/><path d="m243.215402 81c9.819915-29.6193771 12.086049-72.11072664-34.219885-80l-37.995517 20.9751495z" fill="url(#m)"/><path d="m0 197.986011c1.36808769 48.857043 36.8750305 49.585164 52 50.013989l-34.9369062-81z" fill="#9e1209"/><path d="m152 86.1297838c22.152499 13.7444225 66.798207 41.3474862 67.703417 41.8551292 1.406846.799536 19.248283-30.3697168 23.296583-47.984913z" fill="url(#n)"/><path d="m80 153 38.331133 74c22.665038-12.299864 40.413256-27.285617 56.668867-43.338196z" fill="url(#o)"/><path d="m16.4124999 167.016121-5.4124999 64.576679c10.2125 13.977419 24.2625 15.192302 39 14.102664-10.6625-26.58966-31.9625-79.756455-33.5875001-78.679343z" fill="url(#p)"/><path d="m171 22.2492114 76 10.7507886c-4.056004-17.3249211-16.511942-28.50473186-37.743371-32z" fill="url(#q)"/></g></g></svg>