<svg height="500" viewBox="0 0 500 500" width="500" xmlns="http://www.w3.org/2000/svg" xmlns:xlink="http://www.w3.org/1999/xlink"><linearGradient id="a" x1="0%" x2="100%" y1="50%" y2="50%"><stop offset="0" stop-color="#4f4f4f"/><stop offset="1"/></linearGradient><linearGradient id="b" x1="0%" x2="100%" y1="50%" y2="50%"><stop offset="0" stop-color="#c40000"/><stop offset="1" stop-color="#f00"/></linearGradient><g fill="none" fill-rule="evenodd"><path d="m0 0h500v500h-500z" fill="#fff"/><path d="m0 0h500v500h-500z" fill="#fff"/><g fill-rule="nonzero" transform="translate(150 87)"><path d="m0 226v-25c0-4.213889 90.9194445-11.272222 150.155555-25 28.616667 6.633334 49.844445 14.819445 49.844445 25v25c0 10.175-21.227778 18.366666-49.844445 25-59.2361105-13.730555-150.155555-20.788889-150.155555-25" fill="url(#a)" transform="matrix(1 0 0 -1 0 427)"/><path d="m0 125v-25c0-4.2138891 90.9194445-11.2722219 150.155555-25 28.616667 6.6333336 49.844445 14.8194445 49.844445 25v25c0 10.175-21.227778 18.366666-49.844445 25-59.2361105-13.730555-150.155555-20.788889-150.155555-25" fill="url(#a)" transform="matrix(1 0 0 -1 0 225)"/><g fill="url(#b)"><path d="m0 176v-75c0 6.25 200 18.75 200 50v75c0-31.25-200-43.75-200-50" transform="matrix(1 0 0 -1 0 327)"/><path d="m0 75v-75c0 6.25 200 18.75 200 50v75c0-31.25-200-43.75-200-50" transform="matrix(1 0 0 -1 0 125)"/><path d="m0 276v-75c0 6.25 200 18.75 200 50v75c0-31.25-200-43.75-200-50" transform="matrix(1 0 0 -1 0 527)"/></g></g></g></svg>