<svg height="500" viewBox="0 0 500 500" width="500" xmlns="http://www.w3.org/2000/svg" xmlns:xlink="http://www.w3.org/1999/xlink"><filter id="a" height="109.6%" width="114.7%" x="-7.4%" y="-4.8%"><feOffset dx="3" dy="4" in="SourceAlpha" result="shadowOffsetOuter1"/><feGaussianBlur in="shadowOffsetOuter1" result="shadowBlurOuter1" stdDeviation="2"/><feColorMatrix in="shadowBlurOuter1" result="shadowMatrixOuter1" type="matrix" values="0 0 0 0 0   0 0 0 0 0   0 0 0 0 0  0 0 0 1 0"/><feMerge><feMergeNode in="shadowMatrixOuter1"/><feMergeNode in="SourceGraphic"/></feMerge></filter><mask id="b" fill="#fff"><path d="m33.6349464 0c13.8922017 42.741943 60.5067425 47.9591837 95.9083966 47.9591837 35.128887 0 83.137618-7.1190931 98.027605-47.9591837h48.429052v235h-276v-235zm71.9065916 0h49.598987c-5.500406 2.94601269-13.433345 4.51256577-24.799494 4.51256577s-19.299087-1.56655308-24.799492-4.51256512z" fill="#fff" fill-rule="evenodd"/></mask><g fill="none" fill-rule="evenodd"><path d="m0 0h500v500h-500z" fill="#fff"/><path d="m0 0h500v500h-500z" fill="#fff"/><g fill="#55b652" filter="url(#a)" transform="translate(134 89)"><path d="m42.5323014 143.757048c.1508544 2.509076 1.2365172 5.657316 3.2569886 9.44472 4.7752615-.98433 9.6760559-.632313 14.7023831 1.056049s7.2019156 4.908183 6.5267654 9.659462c6.0459482-2.995896 12.9192218-4.042393 20.6198208-3.13949s10.8293592 4.743293 9.3862805 11.52117c8.6102022-4.626632 16.4540432-6.939948 23.5315232-6.939948s11.068828 3.756144 11.974043 11.268432c16.454984-2.171288 27.650912-1.898664 33.587783.817874s7.828169 7.67483 5.673894 14.874876c4.838263.305352 8.447998.875343 10.829203 1.709972 3.571808 1.251944 13.808138 4.471295 17.219621 10.258892 2.274322 3.858398 1.409854 9.538887-2.593404 17.041466 3.273569 2.076082 6.148286 4.040863 8.624151 5.894344 3.713796 2.780221 6.856347 5.653134 9.868194 16.736743 2.007898 7.389072-1.684114 13.820169-11.076036 19.293289 2.926277 7.927881 2.926277 14.829309 0 20.704283-2.926278 5.874975-8.331241 9.011959-16.214889 9.410953-.701166 7.21226-2.643712 12.649877-5.827637 16.312849-3.183926 3.662973-8.332181 4.990237-15.444766 3.981792-1.842089 4.319088-4.637975 7.821712-8.38766 10.507871-3.749686 2.686159-9.188657 2.686159-16.316914 0-1.361584 3.389565-6.2174 6.128495-14.567447 8.216791-8.350047 2.088295-13.737614.798769-16.162701-3.868577-2.06369 2.579051-6.450756 3.868577-13.1611978 3.868577-6.7104414 0-11.3068853-2.219049-13.7893317-6.657146-6.3882249.747564-12.0339099.227683-16.9370551-1.559645s-7.8430576-4.913194-8.8197373-9.377599c-3.9399434-1.172865-6.9000727-2.357631-8.8803879-3.554298-2.9704729-1.795001-5.3203341-3.059628-10.191195-8.973594-3.2472405-3.942644-4.8497036-9.236041-4.8073891-15.880189-1.8916117.070465-3.547673-.446833-4.9681841-1.551896-2.1307665-1.657593-6.1634154-6.60751-8.4991447-11.552244-2.3357292-4.944735-5.2074764-12.304231-2.3622185-29.321217 2.845258-17.016986 7.4995764-12.718368 11.9466553-6.640206 4.4470789 6.078163 7.1598906 23.638509 18.254215 33.380072 11.0943245 9.741563 15.6957143 11.964825 39.4627614 14.133595 23.7670475 2.168771 35.7075195-19.568755 30.3333165-37.754978s-35.2213637-17.474716-56.99865-19.855226-43.2943546-19.520492-50.3934757-47.759659c-4.94266533-27.259276 2.9388938-40.385238 8.7092099-48.982715-12.42700081-11.366348-20.59286236-28.530654-20.59286236-54.3560014-1.07359403-43.2679836 15.83901796-76.1264916 99.99539016-76.1264916 2.405429 0 4.754931.03576244 7.049802.10599841l102.777777-.10599841v34.4527801l-18.080217 4.4008455c7.142527 12.1587455 9.873694 25.475201 10.886358 37.272866 0 65.9427674-60.555511 76.1264914-102.63372 76.1264914-18.19619 0-39.3543002-1.374203-57.5099156-8.495935zm58.3077096-34.831989c31.699851 0 36.698529-12.1486798 36.698529-32.3999993 0-20.2513196-3.392183-33.3808501-36.998365-33.3808501-33.606183 0-36.3986934 13.1295305-36.3986934 33.3808501 0 20.2513195 4.9986788 32.3999993 36.6985294 32.3999993z"/></g><g mask="url(#b)" transform="translate(105 193)"><g transform="translate(46.643893 27.653646)"><path d="m13.0795167 3.19727891c-2.1967576 11.02291049-2.1967576 18.23708329 0 21.64251829 3.2951364 5.1081527 7.5250632 14.3658988 7.5250632 14.3658988s14.8242188 7.8948434 14.8242188 7.8948434 2.1604046 3.2004013 6.4812139 9.6012038h12.7552158 11.1240065l8.919459 5.8684431 6.0044708 3.39867h14.1402637 11.1099846l7.615426 8.8580862 7.394193 6.122914 11.96376 4.9510062 7.747855 4.3669263 2.843321 11.960833 7.632564 12.473759v13.018608l-4.47453 9.740148-3.158034 10.536345-5.675736 6.355529-4.91544 2.543148-9.600298 10.350566-9.757655 2.711754-7.615426 4.174573-17.6924675 2.596228-22.4817106-2.596228-11.1240065-6.886327-19.2364297-10.350566-14.8242188-15.603908-11.49013273-19.135277-6.51090093-12.42185c-3.89693173 10.444563-3.41923108 20.725169 1.43310195 30.841818 4.85233302 10.116649 9.51381011 14.859992 13.98443141 14.230028 6.0800368 9.472538 11.4058921 16.497376 15.9775657 21.074515 6.8575105 6.865709 18.8201848 17.687071 52.8972857 20.709849 34.077101 3.022778 68.01135-15.362655 79.788786-30.76418 11.777437-15.401525 27.649209-31.305118 18.359535-58.764714-6.393318-29.1122117-18.296177-43.2886888-44.359605-56.9514363-38.415985-12.6359359-53.2475888-7.5589901-61.5409936-10.9053077-8.2934048-3.3463177-13.9952669-4.4713157-19.2368459-5.6655513-3.4943861-.7961571-7.157716-1.6612269-10.9899898-2.5952094-3.7562115-3.8986446-7.3559681-6.4647016-10.7992698-7.6981711-5.1649525-1.8502042-12.5545391-5.5460778-12.5545391-8.9355275 0-2.2596332 0-4.33657809 0-6.23083477z" fill="#f0c31f" fill-rule="evenodd"/><g fill-rule="nonzero"><path d="m14.339919 29.4199779c-1.3066789.1987886-2.5267724-.701501-2.7251551-2.010853-.1983826-1.3093521.7000689-2.5319415 2.0067478-2.7307301l14.9208138-2.2699431c1.3066789-.1987885 2.5267723.701501 2.725155 2.0108531.1983827 1.309352-.7000689 2.5319414-2.0067477 2.73073zm10.2067337 17.0374238c-1.2608437.3970917-2.6042087-.3052086-3.0004897-1.5686316-.3962811-1.263423.3045854-2.6095362 1.5654291-3.0066279l20.2915744-6.3906549c1.2608437-.3970918 2.6042087.3052085 3.0004897 1.5686315.3962811 1.263423-.3045854 2.6095362-1.565429 3.006628zm19.5569715 13.3704149c-1.0275309.832932-2.5343554.6734744-3.365587-.3561585-.8312315-1.0296329-.6720994-2.53954.3554314-3.372472 6.7867259-5.5014226 11.2299902-8.9730358 13.3957611-10.4611816 2.4129669-1.6579994 7.3414639-3.3514506 15.0147238-5.2413545 1.2834512-.3161107 2.5796292.4702023 2.8950945 1.7562791s-.4692423 2.5849064-1.7526935 2.9010171c-7.1146058 1.7523089-11.6744917 3.3191038-13.4504247 4.539384-2.0231291 1.3901337-6.4092204 4.8170765-13.0923056 10.2344864zm36.758072 8.4940291c-.9933754.8735464-2.5053688.7747585-3.3771318-.2206491-.8717631-.9954075-.7731768-2.5104941.2201986-3.3840405 7.230602-6.3583887 12.7787362-10.6975566 16.7051316-13.0464869 3.9986258-2.3921415 8.5445514-4.153076 13.6286114-5.2872274 1.29007-.2877886 2.568701.5268605 2.855902 1.8195698.287202 1.2927093-.525784 2.573956-1.815855 2.8617446-4.600368 1.0262496-8.669056 2.6023188-12.2152281 4.7237838-3.6184024 2.1646763-8.9725216 6.3521059-16.0016287 12.5333057zm35.4960648 12.9021107c-1.061891.7884715-2.560602.5650596-3.347464-.4990044s-.563906-2.5658408.497986-3.3543123c8.960268-6.6531424 14.806666-10.9220286 17.567521-12.8263679 3.006148-2.0735343 7.773551-3.9361233 14.365451-5.663615 1.278648-.3350861 2.586283.4319425 2.920685 1.7132063s-.43106 2.5915743-1.709708 2.9266603c-6.100997 1.598844-10.40963 3.2821955-12.862658 4.9742065-2.698321 1.861206-8.518368 6.1108513-17.431813 12.7292265zm26.605542 20.9373936c-1.16694.621765-2.615944.177877-3.236439-.991451-.620496-1.169328-.177514-2.6212955.989426-3.2430604 8.174113-4.3552993 14.131846-7.1388356 17.954681-8.3716934 3.85151-1.2421052 8.0758-1.9965769 12.670035-2.26829 1.319356-.0780296 2.452032.9304528 2.529903 2.2525083.07787 1.3220556-.928553 2.4570489-2.24791 2.5350785-4.20474.2486774-8.032371.9323047-11.48573 2.0460071-3.482033 1.1229497-9.233849 3.8102782-17.173966 8.0409009zm4.658577 36.25931c-1.309094-.182134-2.222978-1.393184-2.041215-2.704957.181762-1.311772 1.39034-2.227525 2.699434-2.045391 5.358199.745485 12.241801.933694 20.62189.556224 5.889787-.292356 10.026068-1.014765 12.302266-2.082001 1.197089-.561276 2.621595-.043863 3.181725 1.155674s.043773 2.626958-1.153315 3.188234c-2.971351 1.39317-7.633786 2.207473-14.104806 2.528655-8.660082.390108-15.822745.194269-21.505979-.596438zm-10.521125 20.092208c-1.219355-.510884-1.79453-1.915542-1.284689-3.137392s1.911632-1.798202 3.130987-1.287317c6.769034 2.836082 12.054329 4.442319 15.78665 4.830363 3.83041.398243 7.175207.398243 10.028267.009106 1.309577-.178617 2.515701.740378 2.693954 2.052634.178252 1.312256-.738868 2.520848-2.048445 2.699465-3.259171.444528-6.979701.444528-11.167716.009105-4.286105-.445621-9.976028-2.174827-17.139008-5.175964zm-19.41548 14.407383c-1.078734-.765172-1.334193-2.261741-.570584-3.342681.763609-1.080941 2.257123-1.336923 3.335857-.571751 5.59022 3.965274 9.401322 6.406462 11.286701 7.256713 1.859423.838545 5.127551 1.708445 9.731735 2.564562 1.299469.241627 2.157419 1.493088 1.916284 2.795215-.241134 1.302128-1.49004 2.161833-2.789509 1.920205-4.950413-.920496-8.53378-1.874305-10.822749-2.906563-2.263014-1.020553-6.24339-3.570169-12.087735-7.7157zm-20.7868981 4.043318c-.4903368-1.229839.1071129-2.625131 1.3344414-3.116471 1.2273284-.49134 2.6197717.107332 3.1101077 1.337172 1.592326 3.993793 3.53828 6.722858 5.781015 8.245856 2.482389 1.685741 5.66232 3.163734 9.539661 4.419178 1.257627.407206 1.947702 1.758906 1.541327 3.019105-.406375 1.2602-1.755315 1.951687-3.012942 1.54448-4.282341-1.386578-7.866657-3.052524-10.753082-5.012639-3.126078-2.122858-5.6206379-5.621305-7.5405281-10.436681zm-18.2329202.903824c-.3642287-1.273073.3704277-2.600972 1.6409011-2.965946 1.2704735-.364973 2.5956615.371186 2.9598903 1.644258 1.1960199 4.180395 2.4145115 6.923246 3.5035255 8.125314 1.2334314 1.361477 3.5619712 3.187237 6.9435379 5.411062 1.1049451.726647 1.4128191 2.213278.6876558 3.320483-.7251633 1.107206-2.2087593 1.415709-3.3137044.689063-3.6911617-2.427425-6.2975365-4.471029-7.8612059-6.197028-1.7080869-1.885408-3.1776372-5.193398-4.5606003-10.027206zm-19.143607-5.76307c-.2048271-1.308355.687594-2.535372 1.9932782-2.740618s2.5301955.689001 2.7350226 1.997356c.8076427 5.158907 1.4855959 8.546859 1.9884328 10.028666.489695 1.443079 1.3933446 3.186616 2.7154738 5.20671.724807 1.10744.4164548 2.593971-.688724 3.320261s-2.5886754.417307-3.3134824-.690133c-1.5269044-2.332972-2.6099442-4.422631-3.2445944-6.292878-.6215083-1.831519-1.3348349-5.396244-2.1854066-10.829364zm-21.286374-12.0148c.0096546-1.324321 1.0888636-2.390053 2.4104809-2.380444 1.3216173.00974 2.3851732 1.091156 2.3755186 2.415477-.0367126 5.035885.136578 8.461236.4884381 10.146936.3898402 1.867657.8843571 3.982877 1.4834752 6.344195.325658 1.283523-.448721 2.588562-1.7296239 2.914887-1.2809029.326324-2.5832779-.449639-2.9089359-1.733163-.6150708-2.424192-1.1249343-4.605055-1.5296661-6.544055-.4427118-2.120955-.6287962-5.799194-.5896869-11.163833z" fill="#e2a91e"/><path d="m26.1318349 155.354197c2.1474404 2.029297 6.1429963 4.711428 12.1167145 8.180976 3.1944583 3.853324 6.4330127 6.551882 9.7746362 8.054274 3.0861224 1.387518 6.8743725 2.178565 11.3742381 2.415359 2.9411173 2.67814 5.574942 4.526636 7.9782497 5.543429 2.7556596 1.165867 6.4438014 1.265767 11.1952238.465366 3.4566805 1.957706 6.7359024 2.973016 9.8549832 2.973016 3.1276562 0 6.656761-1.024334 10.6509011-3.008897 4.5349565.701797 8.2228775.625469 11.1310955-.322739 2.860836-.932759 5.616007-2.872066 8.318881-5.759597 5.00423-.630055 9.001259-2.231751 11.918008-4.894087 2.286657-2.087203 4.291113-4.661699 6.020585-7.711112 1.438745.073765 2.878608-.211094 4.269942-.856626 2.998906-1.391392 5.225038-4.228211 8.407668-9.765775 1.84563-3.211274 2.515524-7.093704 2.093441-11.578327 1.729489-2.591933 2.982404-5.080621 3.747095-7.480569 1.409019-4.422145 1.457951-9.597829.097949-16.293601-.95337-4.693776-3.985136-9.310745-8.981795-13.937787 1.315323-6.3095977-1.688512-11.9655951-8.442-16.4044125-5.794888-3.8087646-12.040455-6.0877189-18.693374-6.8194905-.09809-2.3942291-.768908-4.4930402-2.072403-6.2447298-3.286332-4.4163077-9.168729-7.7027611-17.8877504-8.9503533-6.0606265-.8672063-13.0898234-.539315-21.1022218.9561622-5.335656-5.5817711-10.7674338-8.9786493-16.3413419-10.0777466-5.0875082-1.0031859-10.9877691-.6998877-17.7134437.8621965-2.5488118-4.8545456-5.4879612-8.346997-8.8983615-10.430659-3.091588-1.8888763-6.7240327-3.2152801-10.8839008-3.9973052-.4241283-3.3762276-1.0441808-6.1196722-1.8868905-8.2615802-1.0347518-2.6300201-3.0442321-4.9757071-5.9566229-7.099055l1.5495813-21.0488012c.1458494-1.98115115-1.3386778-3.70566764-3.3157843-3.8518154-1.9771065-.14614775-3.6981023 1.34141641-3.8439517 3.32256756l-1.86256276 25.30019854 1.84278186 1.1492868c2.717362 1.6947359 4.3120838 3.3523112 4.9076724 4.8661138.7692098 1.955094 1.3572619 4.99781 1.7100309 9.0648845l.2517658 2.9026091 2.8858253.3559334c4.4060616.5434372 8.0194523 1.7008122 10.8646521 3.439152 2.6041094 1.5910401 5.1215627 4.8913199 7.4201038 9.9771642l1.2648306 2.7986148 2.956339-.8141604c6.9491195-1.9137516 12.729315-2.382404 17.3217724-1.4768352 4.33515.8548314 8.946998 3.9171078 13.7763351 9.3321062l1.3769549 1.5439403 2.0239003-.4178194c8.0920643-1.6705475 14.9774705-2.0834258 20.6376681-1.2735163 6.8920854.9861786 11.0482214 3.3081817 13.1472934 6.1290007.646477.8687634.868953 2.3593949.455902 4.6543276l-.744907 4.1387469 4.195846.095676c6.718854.1532071 12.920328 2.1070495 18.676732 5.8905202 5.012533 3.2945519 6.38763 6.4606958 4.942541 10.3071777l-.889816 2.368478 1.924186 1.639223c4.929364 4.199349 7.660493 8.054748 8.349452 11.446736 1.132814 5.577243 1.095344 9.540529.097949 12.670811-.631839 1.982998-1.809806 4.20642-3.551561 6.648281l-.834904 1.170498.200984 1.424578c.510009 3.61495.126598 6.388394-1.037229 8.413375-2.42823 4.224959-4.051719 6.293814-5.202881 6.827915-.585259.27154-1.047257.27154-1.670649-.011761l-3.199381-1.453961-1.51962 3.17384c-1.626542 3.397152-3.537779 6.078541-5.718961 8.069468-1.892318 1.727261-4.906124 2.831746-9.137095 3.196932l-1.451524.125285-.953808 1.103528c-2.226975 2.576544-4.279028 4.11769-6.081255 4.705296-1.84247.600727-4.824478.600727-8.8594137-.120598l-1.2149675-.217199-1.0913861.577378c-3.5040124 1.853735-6.3297994 2.739038-8.3949023 2.739038-1.9929843 0-4.4292282-.837502-7.284622-2.614017l-1.1973058-.744917-1.3832593.270317c-4.1386517.808776-6.993209.808776-8.3925448.216744-1.7403889-.736326-4.0520236-2.424004-6.8292895-5.06587l-.9981773-.949513-1.3758128-.037418c-4.2304056-.115053-7.5688765-.747824-10.0027813-1.842106-2.3372592-1.05083-4.8794924-3.214428-7.5594199-6.538029l-.4206616-.521697-.5800287-.334721c-5.8273142-3.362803-9.6564178-5.915703-11.3445787-7.510988-1.527345-1.443317-2.5932785-3.093966-3.2323097-4.991711l-.3008747-.893515-.6996535-.630669c-4.3938067-3.960589-7.0256618-6.966966-7.7993487-8.703368-.4589432-1.030016-2.6093099-5.949904-2.6235379-5.982307-.0794598-.180913-.0794598-.180913-.1589994-.361815-1.438486-3.270701-2.4209376-5.426641-3.1170257-6.790065-.961987-1.884239.931089 2.434771-2.5144633-3.851055-.95441653-1.741172-4.96255885-8.156535-8.52372102-8.383616-.47323767 4.115959 1.4923975 9.555005 2.44681404 11.296176 1.46158383 2.850113 1.28202612 2.416888 2.20000665 4.214932.6100768 1.194954 1.55887106 3.277035 2.93888735 6.414793.07864374.178864.07864374.178864.15728873.357922.00419139.009545 2.16809045 4.960395 2.63928615 6.017909 1.244042 2.792031 4.1790167 6.205235 8.8889426 10.515343 1.0419796 2.645714 2.6413371 4.990194 4.7731446 7.004718z" fill="#009f4d"/></g></g></g></g></svg>