<svg height="500" viewBox="0 0 500 500" width="500" xmlns="http://www.w3.org/2000/svg"><g fill="none" fill-rule="evenodd"><path d="m0 0h500v500h-500z" fill="#f7f7fa"/><path d="m0 0h500v500h-500z" fill="#fff"/><path d="m378.001993 0c-208.771175 0-378.001993 169.235698-378.001993 378 0 208.764303 169.230818 378 378.001993 378s377.998007-169.235697 377.998007-378c0-208.764302-169.226832-378-377.998007-378zm-73.270423 564.381982c2.929674-18.864075 5.725166-36.201803 8.33895-52.203281-58.364268-29.252176-95.351414-88.147899-85.916631-156.210085 12.873238-92.438999 84.049243-139.845192 173.558081-131.780157 6.787453-9.608154 14.237438-18.827733 22.718957-27.748193 15.09845-16.882062 37.557427-17.413208 27.457317 2.591434-20.359563 38.524869-28.404988 67.609315-45.890787 114.316631-17.427092 49.676144-44.364447 122.588532-80.225009 250.605939-2.594218 11.724353-20.968982 9.854159-20.040878.427712zm224.25152-169.757107c-11.637631 88.262513-94.135375 138.352392-176.14391 129.703096 5.951601-20.124849 8.772251-28.707051 15.671524-44.929374 5.205205-9.36215 24.692576-13.186402 39.824571-19.618863 30.739223-11.047839 54.344351-38.482937 58.80316-73.105279 3.139337-24.547339-4.031099-48.068726-18.08683-66.247904-9.828947-12.473547-19.093204-20.032596-15.928709-31.740175 4.654493-15.808587 8.22713-27.541326 16.907131-47.406193 53.883096 28.941875 87.473721 89.053642 78.953063 153.344692zm-239.92025-30.744976c-3.041494 23.610845 3.388136 46.148215 16.278147 63.924837 8.590545 11.475553 15.17113 18.165199 18.394334 23.431933 10.617274-57.506357 18.282511-87.253338 28.494441-120.628884 4.579016-13.941189 12.163184-33.495754 17.653528-46.810749-6.54704 2.191676-15.836458 4.629358-23.42342 7.598185-30.051533 11.268685-53.022086 38.421435-57.39703 72.484678z" fill="#278cc0" fill-rule="nonzero" transform="translate(-128 -128)"/></g></svg>