<svg height="500" viewBox="0 0 500 500" width="500" xmlns="http://www.w3.org/2000/svg" xmlns:xlink="http://www.w3.org/1999/xlink"><defs><path id="a" d="m215.158685 169.009618 59.193011-102.1383731 28.603768 102.1383731-28.603768 102.115015zm-28.851263 16.586597 59.202634 102.123259-103.105836-26.395388-74.4869438-75.727871zm59.188884-135.3253067-59.188884 102.1383737h-118.3901458l74.4869438-75.7319948zm84.503694 83.9799517-36.112548-134.25086-134.789566 35.9788457-19.952375 35.0541621-40.4877441-.2899082-98.6577669 98.2761364 98.6577669 98.252778h.004125l40.4698691-.299525 19.981251 35.054161 134.77444 35.97335 36.112548-134.226129-20.507868-34.764253z"/><filter id="b" height="101.2%" width="101.2%" x="-.6%" y="-.6%"><feGaussianBlur in="SourceAlpha" result="shadowBlurInner1" stdDeviation="1.5"/><feOffset dx="0" dy="1" in="shadowBlurInner1" result="shadowOffsetInner1"/><feComposite in="shadowOffsetInner1" in2="SourceAlpha" k2="-1" k3="1" operator="arithmetic" result="shadowInnerInner1"/><feColorMatrix in="shadowInnerInner1" type="matrix" values="0 0 0 0 0   0 0 0 0 0   0 0 0 0 0  0 0 0 0.5 0"/></filter></defs><g fill="none" fill-rule="evenodd"><path d="m0 0h500v500h-500z" fill="#f7f7fa"/><path d="m0 0h500v500h-500z" fill="#222c37"/><g fill-rule="nonzero" transform="translate(63 81)"><use fill="#fff" xlink:href="#a"/><use fill="#000" filter="url(#b)" xlink:href="#a"/></g></g></svg>