<svg height="500" viewBox="0 0 500 500" width="500" xmlns="http://www.w3.org/2000/svg" xmlns:xlink="http://www.w3.org/1999/xlink"><defs><path id="a" d="m0 0h276v276h-95.524526c10.003586-129.40593-106.8116997-179.3686283-180.475474-176.0525102zm205.868852 90.4918033c11.24488 0 20.360656-9.1157761 20.360656-20.3606558 0-11.2448796-9.115776-20.3606557-20.360656-20.3606557-11.244879 0-20.360655 9.1157761-20.360655 20.3606557 0 11.2448797 9.115776 20.3606558 20.360655 20.3606558z"/><path id="b" d="m.35355339-.40990258h275.99999961v244.99999958c-70.142194-148.1821702-220.2865647-160.7835965-275.99999961-145.0721249zm205.86885261 90.47404388c11.24488 0 20.360656-9.1139871 20.360656-20.3566599s-9.115776-20.3566598-20.360656-20.3566598-20.360656 9.113987-20.360656 20.3566598 9.115776 20.3566599 20.360656 20.3566599z"/><filter id="c" height="106.5%" width="105.8%" x="-3.6%" y="-1.6%"><feOffset dx="-2" dy="4" in="SourceAlpha" result="shadowOffsetOuter1"/><feGaussianBlur in="shadowOffsetOuter1" result="shadowBlurOuter1" stdDeviation="2"/><feColorMatrix in="shadowBlurOuter1" type="matrix" values="0 0 0 0 0   0 0 0 0 0   0 0 0 0 0  0 0 0 0.0948426573 0"/></filter><mask id="d" fill="#fff"><use fill="#fff" fill-rule="evenodd" xlink:href="#a"/></mask></defs><g fill="none" fill-rule="evenodd"><path d="m0 0h500v500h-500z" fill="#fff"/><path d="m0 0h500v500h-500z" fill="#fff"/><g transform="matrix(.70710678 -.70710678 .70710678 .70710678 54.838528 279)"><use fill="#023bbb" xlink:href="#a"/><g mask="url(#d)"><use fill="#000" filter="url(#c)" xlink:href="#b"/><use fill="#0554ff" fill-rule="evenodd" xlink:href="#b"/></g></g></g></svg>