<svg width="20" height="20" viewBox="0 0 20 20" fill="none" xmlns="http://www.w3.org/2000/svg">
<path fill-rule="evenodd" clip-rule="evenodd" d="M16.986 2.56337C16.8876 2.52254 16.7798 2.5 16.6667 2.5H12.5L12.4028 2.50561C11.9884 2.55374 11.6667 2.90597 11.6667 3.33333L11.6723 3.43052C11.7204 3.84497 12.0726 4.16667 12.5 4.16667H14.6548L7.74408 11.0774L7.67475 11.1559C7.42057 11.4828 7.44367 11.9555 7.74408 12.2559C8.06951 12.5814 8.59715 12.5814 8.92259 12.2559L15.8333 5.34518V7.5L15.8389 7.59718C15.8871 8.01163 16.2393 8.33333 16.6667 8.33333C17.1269 8.33333 17.5 7.96024 17.5 7.5V3.33333C17.5 3.30114 17.4981 3.26895 17.4944 3.23693L17.4944 3.23615C17.4853 3.15757 17.4652 3.08232 17.4358 3.01197C17.396 2.91679 17.3379 2.82749 17.2613 2.74951C17.2579 2.74603 17.2544 2.74258 17.251 2.73916C17.1723 2.66179 17.0821 2.6032 16.986 2.56337ZM9.16667 5C9.6269 5 10 5.3731 10 5.83333C10 6.2607 9.6783 6.61292 9.26385 6.66106L9.16667 6.66667H5C4.57264 6.66667 4.22041 6.98837 4.17227 7.40282L4.16667 7.5V15C4.16667 15.4274 4.48837 15.7796 4.90282 15.8277L5 15.8333H12.5C12.9274 15.8333 13.2796 15.5116 13.3277 15.0972L13.3333 15V10.8333C13.3333 10.3731 13.7064 10 14.1667 10C14.594 10 14.9463 10.3217 14.9944 10.7361L15 10.8333V15C15 16.3314 13.9592 17.4197 12.6469 17.4958L12.5 17.5H5C3.6686 17.5 2.58028 16.4592 2.50424 15.1469L2.5 15V7.5C2.5 6.1686 3.54077 5.08028 4.85311 5.00424L5 5H9.16667Z" fill="#6738B8"/>
</svg>
