<svg width="119" height="111" viewBox="0 0 119 111" fill="none" xmlns="http://www.w3.org/2000/svg">
<g clip-path="url(#clip0_506_15)">
<rect width="119" height="91" fill="#262448"/>
<rect x="15" y="14" width="64" height="64" rx="9" fill="#262448" stroke="#DBDDE0" stroke-width="2"/>
<path d="M59.3132 46.0442L38.7632 58.7657C38.4301 58.9719 38 58.7323 38 58.3405V32.8976C38 32.5058 38.4301 32.2662 38.7632 32.4724L59.3132 45.1939C59.629 45.3894 59.629 45.8487 59.3132 46.0442Z" fill="#B3FBFE" stroke="#B3FBFE"/>
<rect y="91" width="119" height="20" fill="#2D2A55"/>
<path fill-rule="evenodd" clip-rule="evenodd" d="M50.7031 73.465C50.1433 72.7572 49.4631 71.3102 48.2527 69.5537C47.5666 68.5601 45.8653 66.6892 45.3586 65.739C44.919 64.8991 44.9663 64.5226 45.0708 63.8267C45.2561 62.5886 46.5257 61.6246 47.8801 61.7547C48.9032 61.8513 49.7707 62.5275 50.5513 63.1662C51.0225 63.5507 51.6021 64.2978 51.9511 64.7197C52.2724 65.1061 52.3513 65.2658 52.6943 65.7232C53.1477 66.3284 53.2897 66.6281 53.1162 65.9617C52.9762 64.9839 52.7475 63.3141 52.4163 61.8375C52.164 60.7177 52.1029 60.5423 51.8623 59.6827C51.608 58.768 51.4779 58.1273 51.2394 57.1573C51.0738 56.4713 50.7761 55.0696 50.6953 54.281C50.5829 53.2026 50.5237 51.4441 51.2157 50.6358C51.7579 50.003 53.0018 49.8118 53.7727 50.2021C54.782 50.7127 55.3557 52.1795 55.6179 52.765C56.0891 53.8177 56.3809 55.0341 56.6352 56.631C56.9585 58.6635 57.5539 61.4846 57.5736 62.078C57.6209 61.3506 57.4395 59.8188 57.5657 59.1209C57.68 58.488 58.2123 57.7527 58.8787 57.5536C59.4425 57.386 60.1029 57.3249 60.6845 57.4452C61.3015 57.5713 61.9521 58.0129 62.1946 58.4289C62.9083 59.6591 62.9221 62.1726 62.9516 62.0386C63.1212 61.2973 63.0916 59.6157 63.5115 58.9158C63.7875 58.4545 64.4913 58.0386 64.8659 57.9715C65.4455 57.869 66.1572 57.8375 66.7663 57.9558C67.2572 58.0524 67.9216 58.6359 68.101 58.9158C68.5308 59.594 68.7752 61.5122 68.8482 62.1845C68.8777 62.4624 68.9941 61.4117 69.4258 60.7335C70.2262 59.4738 73.0591 59.2293 73.1676 61.9932C73.2169 63.2826 73.207 63.2234 73.207 64.0908C73.207 65.1101 73.1833 65.7232 73.1281 66.4605C73.067 67.2491 72.8975 69.0312 72.6511 69.8947C72.4815 70.4881 71.9197 71.8228 71.3657 72.6232C71.3657 72.6232 69.2484 75.0875 69.0177 76.1974C68.7851 77.3053 68.862 77.3132 68.8166 78.0998C68.7713 78.8844 69.0552 79.9175 69.0552 79.9175C69.0552 79.9175 67.4741 80.1225 66.6224 79.9865C65.8516 79.8623 64.8974 78.3285 64.651 77.8593C64.3119 77.2127 63.5884 77.3369 63.3065 77.814C62.8629 78.569 61.9087 79.9234 61.2345 80.0082C59.9176 80.1738 57.1852 80.0693 55.0462 80.0476C55.0462 80.0476 55.4109 78.0545 54.5987 77.3704C53.9974 76.8598 52.9624 75.8248 52.3434 75.2807L50.7031 73.465Z" fill="white"/>
<path fill-rule="evenodd" clip-rule="evenodd" d="M50.7031 73.465C50.1433 72.7572 49.4631 71.3102 48.2527 69.5537C47.5666 68.5601 45.8653 66.6892 45.3586 65.739C44.919 64.8991 44.9663 64.5226 45.0708 63.8267C45.2561 62.5886 46.5257 61.6246 47.8801 61.7547C48.9032 61.8513 49.7707 62.5275 50.5513 63.1662C51.0225 63.5507 51.6021 64.2978 51.9511 64.7197C52.2724 65.1061 52.3513 65.2658 52.6943 65.7232C53.1477 66.3284 53.2897 66.6281 53.1162 65.9617C52.9762 64.9839 52.7475 63.3141 52.4163 61.8375C52.164 60.7177 52.1029 60.5423 51.8623 59.6827C51.608 58.768 51.4779 58.1273 51.2394 57.1573C51.0738 56.4713 50.7761 55.0696 50.6953 54.281C50.5829 53.2026 50.5237 51.4441 51.2157 50.6358C51.7579 50.003 53.0018 49.8118 53.7727 50.2021C54.782 50.7127 55.3557 52.1795 55.6179 52.765C56.0891 53.8177 56.3809 55.0341 56.6352 56.631C56.9585 58.6635 57.5539 61.4846 57.5736 62.078C57.6209 61.3506 57.4395 59.8188 57.5657 59.1209C57.68 58.488 58.2123 57.7527 58.8787 57.5536C59.4425 57.386 60.1029 57.3249 60.6845 57.4452C61.3015 57.5713 61.9521 58.0129 62.1946 58.4289C62.9083 59.6591 62.9221 62.1726 62.9516 62.0386C63.1212 61.2973 63.0916 59.6157 63.5115 58.9158C63.7875 58.4545 64.4913 58.0386 64.8659 57.9715C65.4455 57.869 66.1572 57.8375 66.7663 57.9558C67.2572 58.0524 67.9216 58.6359 68.101 58.9158C68.5308 59.594 68.7752 61.5122 68.8482 62.1845C68.8777 62.4624 68.9941 61.4117 69.4258 60.7335C70.2262 59.4738 73.0591 59.2293 73.1676 61.9932C73.2169 63.2826 73.207 63.2234 73.207 64.0908C73.207 65.1101 73.1833 65.7232 73.1281 66.4605C73.067 67.2491 72.8975 69.0312 72.6511 69.8947C72.4815 70.4881 71.9197 71.8228 71.3657 72.6232C71.3657 72.6232 69.2484 75.0875 69.0177 76.1974C68.7851 77.3053 68.862 77.3132 68.8166 78.0998C68.7713 78.8844 69.0552 79.9175 69.0552 79.9175C69.0552 79.9175 67.4741 80.1225 66.6224 79.9865C65.8516 79.8623 64.8974 78.3285 64.651 77.8593C64.3119 77.2127 63.5884 77.3369 63.3065 77.814C62.8629 78.569 61.9087 79.9234 61.2345 80.0082C59.9176 80.1738 57.1852 80.0693 55.0462 80.0476C55.0462 80.0476 55.4109 78.0545 54.5987 77.3704C53.9974 76.8598 52.9624 75.8248 52.3434 75.2807L50.7031 73.465Z" stroke="black" stroke-width="1.47857" stroke-linecap="round" stroke-linejoin="round"/>
<path d="M66.9375 74.1639V67.3447" stroke="black" stroke-width="1.47857" stroke-linecap="round"/>
<path d="M62.9632 74.1876L62.9316 67.3408" stroke="black" stroke-width="1.47857" stroke-linecap="round"/>
<path d="M59.0273 67.4023L59.0687 74.1565" stroke="black" stroke-width="1.47857" stroke-linecap="round"/>
</g>
<defs>
<clipPath id="clip0_506_15">
<rect width="119" height="111" rx="5" fill="white"/>
</clipPath>
</defs>
</svg>
