<svg xmlns="http://www.w3.org/2000/svg" width="151" height="32">
  <style>
    /* Light Mode (Default) */
    .bg { fill: #fff; }
    .logo_color { fill: #6638B8; }

    /* Dark Mode */
    @media (prefers-color-scheme: dark) {
      .logo_color { fill: #916CE7; }
    }

    /* Remove background in supported browsers */
    @media (prefers-color-scheme: no-preference) { .bg { fill: none; } }
    @media (prefers-color-scheme: light) { .bg { fill: none; } }
    @media (prefers-color-scheme: dark) { .bg { fill: none; } }
  </style>
  <path class="bg" d="M0 0h800v800H0z" />
  <path class="logo_color" fill-rule="evenodd" d="M32.533 14.782 25.871 2.419C25.344 1.544 24.452 1 23.48.954h-4.967a.446.446 0 0 0-.138 0h-8.227c-.973.044-1.864.593-2.39 1.47L1.095 14.783a3.436 3.436 0 0 0 0 2.954L7.76 30.105c.525.878 1.415 1.428 2.387 1.476h13.332c.973-.047 1.863-.598 2.389-1.476l6.665-12.37a3.436 3.436 0 0 0 0-2.953Zm-7.49-11.848 2.432 4.516-4.262 7.814-2.79-5.119a.472.472 0 0 0-.412-.253h-5.537l4.24-7.914h4.765a2.034 2.034 0 0 1 1.56.954l.003.002Zm-7.926 12.854-2.657-4.873h5.279l2.658 4.872h-5.28Zm-.868.494-2.626 4.82-2.636-4.843 2.625-4.819 2.637 4.842Zm.84.536h5.252l-2.61 4.79H14.46l2.63-4.79ZM8.592 2.934a2.02 2.02 0 0 1 1.555-.945h7.459L13.37 9.892H4.84l3.751-6.958ZM1.926 15.296l2.36-4.38h8.503l-2.775 5.083a.543.543 0 0 0 0 .518l2.775 5.09H4.286L1.923 17.23a2.363 2.363 0 0 1 0-1.93l.003-.004Zm8.22 15.257a2.036 2.036 0 0 1-1.559-.965l-3.752-6.957h8.503l4.278 7.922h-7.47Zm14.891-.965c-.354.56-.928.917-1.558.965h-4.754l-4.279-7.925h5.559c.169 0 .326-.097.411-.254l2.768-5.074 4.257 7.832-2.404 4.456Zm6.666-12.369-3.707 6.885-4.241-7.808 4.275-7.828 3.68 6.826c.275.61.275 1.32 0 1.93M73.909 9.892l.237.006a5.716 5.716 0 0 1 5.242 4.208c.135.489.204.994.204 1.502v2.617a5.606 5.606 0 0 1-.2 1.466 5.71 5.71 0 0 1-5.506 4.248 5.71 5.71 0 0 1-5.506-4.248 5.725 5.725 0 0 1-.232-1.466v-2.617c.013-.51.095-1.015.244-1.502a5.758 5.758 0 0 1 5.52-4.214h-.003Zm53.281 0 .238.006a5.72 5.72 0 0 1 5.246 4.209c.136.489.205.994.205 1.501v2.619a5.624 5.624 0 0 1-.197 1.465 5.711 5.711 0 0 1-5.509 4.247 5.713 5.713 0 0 1-5.51-4.247 5.554 5.554 0 0 1-.228-1.465v-2.619c.01-.509.09-1.014.236-1.501a5.757 5.757 0 0 1 5.521-4.215h-.002Zm-79.136.002a6.54 6.54 0 0 1 2.811.563 4.732 4.732 0 0 1 1.873 1.471 3.53 3.53 0 0 1 .727 1.91v.198h-3.662a1.18 1.18 0 0 0-.427-.414 2.42 2.42 0 0 0-1.322-.33 2.644 2.644 0 0 0-1.378.294.546.546 0 0 0-.272.551c0 .332.344.446.76.62.613.24 1.24.444 1.876.614.868.219 1.716.51 2.536.873a4.17 4.17 0 0 1 1.669 1.319c.412.61.62 1.335.596 2.071a3.787 3.787 0 0 1-1.674 3.229 6.948 6.948 0 0 1-4.025 1.069 7.554 7.554 0 0 1-2.922-.514 4.804 4.804 0 0 1-2.037-1.46 3.537 3.537 0 0 1-.784-2.058v-.073l.004-.044h3.654c.11.23.285.424.503.555a4.037 4.037 0 0 0 3.279-.012.688.688 0 0 0 .336-.646c0-.18 0-.209-.1-.31a2.031 2.031 0 0 0-.74-.421c-.449-.173-1.144-.39-2.066-.652a11.992 11.992 0 0 1-2.38-.872 4.028 4.028 0 0 1-1.577-1.36 3.672 3.672 0 0 1-.559-2.062 3.626 3.626 0 0 1 .687-2.159 4.463 4.463 0 0 1 1.905-1.459 6.814 6.814 0 0 1 2.709-.49Zm10.95.358c.46.034.876.284 1.12.673l3.206 5.543v-6.216h3.38l.006 12.016c.015.343-.111.676-.35.924-.24.247-.57.387-.916.387h-2.099l-4.376-7.467v6.276a1.257 1.257 0 0 1-.34.79 1.279 1.279 0 0 1-.921.4H55.63V10.253h3.372Zm56.408 0v10.015h4.23v1.937c.028.348-.088.692-.318.952-.231.26-.557.413-.902.423h-6.286V10.252h3.276Zm-9.718 0a4.71 4.71 0 0 1 0 9.419h-3.116v2.717a1.262 1.262 0 0 1-1.251 1.19h-2.066V10.253h6.433Zm-16.152 0c.57.025 1.055.43 1.188.99.074.254.68 2.304 1.344 4.549l.149.501 1.742-6.04h3.508l-1.662 5.692-.19.648c-.85 2.912-1.681 5.752-1.715 5.86-.035.11-.08.217-.131.32-.201.48-.662.795-1.176.806h-1.707l-.404-1.327-1.767-6-.235.81c-.809 2.78-1.582 5.42-1.622 5.522a1.345 1.345 0 0 1-1.351.995l-1.631-.003-3.933-13.322h2.485a1.293 1.293 0 0 1 1.28.986c.075.276.78 2.605 1.504 5.022l1.735-6.009h2.59Zm53.287 0c.57.025 1.054.43 1.188.99.073.254.679 2.304 1.344 4.549l.148.501 1.743-6.04h3.508s-3.498 11.975-3.568 12.2c-.035.11-.079.217-.131.32-.201.48-.662.795-1.176.806h-1.707l-.404-1.327-1.767-6-.235.81c-.808 2.78-1.582 5.42-1.622 5.522a1.345 1.345 0 0 1-1.351.995l-1.63-.003-3.933-13.322h2.485a1.294 1.294 0 0 1 1.279.986c.075.276.78 2.605 1.505 5.022l1.734-6.009h2.59Zm-15.66 3.304c-.582 0-1.14.228-1.557.636-.422.399-.668.951-.684 1.534v2.5c.016.514.215 1.004.56 1.382.43.493 1.048.778 1.7.785a2.177 2.177 0 0 0 1.649-.785c.333-.383.516-.873.516-1.381l.004-.001v-.314c-.002-.642-.007-1.797-.007-2.186a2.125 2.125 0 0 0-.661-1.534 2.198 2.198 0 0 0-1.52-.636Zm-53.285 0c-.58 0-1.138.228-1.555.635-.421.4-.669.951-.688 1.534v2.5c.018.514.218 1.004.564 1.381.431.493 1.05.778 1.703.785a2.173 2.173 0 0 0 1.646-.785c.332-.382.516-.873.516-1.38v-.315c-.002-.642-.008-1.797-.008-2.186a2.126 2.126 0 0 0-.66-1.534 2.195 2.195 0 0 0-1.518-.636Zm31.801.082h-3.107v2.647h3.123a1.323 1.323 0 1 0-.016-2.647Z" clip-rule="evenodd"/>
</svg>

