<svg width="150" height="20" viewBox="0 0 150 20" fill="none" xmlns="http://www.w3.org/2000/svg">
<path fill-rule="evenodd" clip-rule="evenodd" d="M43.6181 1.09608e-06L43.9468 0.00808349C47.349 0.162569 50.2872 2.50391 51.2022 5.83331C51.3899 6.50991 51.4849 7.20916 51.4847 7.91166V11.5353C51.4825 12.2209 51.3895 12.9032 51.2082 13.564C50.2794 17.0337 47.1546 19.4444 43.5861 19.4444C40.0175 19.4444 36.8927 17.0337 35.9639 13.564C35.7694 12.9048 35.6615 12.2228 35.643 11.5353V7.91166C35.6612 7.20663 35.7748 6.50741 35.9807 5.83331C36.949 2.38904 40.0674 0.00850818 43.6221 1.09608e-06H43.6181ZM117.372 1.09608e-06L117.702 0.00808614C121.108 0.162593 124.049 2.50424 124.965 5.83408C125.152 6.51079 125.248 7.21012 125.247 7.91271V11.5369C125.247 12.2223 125.155 12.9046 124.976 13.5658C124.046 17.0344 120.919 19.4444 117.349 19.4444C113.778 19.4444 110.652 17.0344 109.722 13.5658C109.526 12.9069 109.42 12.2244 109.406 11.5369V7.91271C109.42 7.2081 109.531 6.50879 109.733 5.83408C110.7 2.39009 113.819 0.00882665 117.376 1.09608e-06H117.372ZM7.82741 0.00275616C9.16583 -0.028875 10.4947 0.237007 11.7194 0.781466C12.7418 1.2272 13.6342 1.9284 14.3121 2.81863C14.9002 3.57981 15.2504 4.49974 15.3184 5.46167V5.7358H10.2494C10.1039 5.49706 9.90013 5.29977 9.65749 5.1627C9.10301 4.83844 8.46811 4.68027 7.82741 4.70679C7.16703 4.66721 6.50826 4.80755 5.92039 5.11304C5.6508 5.2649 5.50152 5.56786 5.54451 5.87585C5.54451 6.33573 6.02003 6.49366 6.5952 6.73303C7.44468 7.06517 8.3119 7.34934 9.19282 7.58425C10.3944 7.88704 11.5686 8.29106 12.703 8.79204C13.6168 9.18955 14.4128 9.81849 15.0135 10.6176C15.5834 11.4623 15.8719 12.466 15.8383 13.4852C15.877 15.276 15.003 16.9623 13.5219 17.9548C11.8571 19.0069 9.91336 19.5231 7.94975 19.4347C6.56807 19.4671 5.1936 19.2251 3.90484 18.7226C2.80434 18.3115 1.83152 17.6145 1.08525 16.7023C0.430011 15.8938 0.04964 14.895 3.17891e-05 13.8527L0 13.7527L0.00594987 13.6917H5.06406C5.21658 14.0108 5.45875 14.2778 5.76057 14.4595C7.20849 15.096 8.85555 15.0899 10.2988 14.4426C10.6109 14.2588 10.7914 13.9117 10.7634 13.5487C10.7634 13.2984 10.7634 13.2597 10.6253 13.1206C10.3289 12.8557 9.98027 12.6567 9.60224 12.5366C8.97972 12.2972 8.01782 11.9963 6.74121 11.6347C5.60406 11.3498 4.49991 10.945 3.44708 10.4269C2.56832 10.0031 1.81547 9.35437 1.26382 8.54571C0.729111 7.69308 0.459761 6.69899 0.490353 5.69111C0.480352 4.6179 0.81382 3.56997 1.4414 2.70241C2.12114 1.79963 3.03301 1.10104 4.07848 0.682141C5.26966 0.202854 6.545 -0.0282651 7.82741 0.00275616ZM22.9849 0.498577C23.6224 0.54547 24.1987 0.891821 24.5355 1.43035L28.9744 9.10335V0.498577H33.6541L33.6611 17.1318C33.6823 17.6057 33.5072 18.0676 33.1762 18.4102C32.8452 18.7528 32.3873 18.9463 31.9087 18.9459H29.0033L22.9459 8.61023L22.9464 17.2975C22.9233 17.7035 22.7577 18.0914 22.4746 18.3917C22.1443 18.742 21.6833 18.9424 21.1995 18.9459H18.3162V0.498577H22.9849ZM101.069 0.498577V14.3613H106.925V17.0427C106.963 17.5247 106.803 18.001 106.484 18.3607C106.165 18.7204 105.714 18.9319 105.236 18.9459H96.5344V0.498577H101.069ZM87.6168 0.498577C91.1876 0.542564 94.0591 3.44827 94.0591 7.01751C94.0591 10.5868 91.1876 13.4925 87.6168 13.5364H83.3034L83.3038 17.2975C83.281 17.7035 83.1167 18.0914 82.836 18.3917C82.5085 18.742 82.0513 18.9424 81.5717 18.9459H78.7125V0.498577H87.6168ZM65.2585 0.498577C66.0474 0.53293 66.7183 1.09198 66.9031 1.86888C67.0051 2.22009 67.8432 5.0585 68.7637 8.16512L68.9693 8.859L71.3809 0.498577H76.2373C76.2373 0.498577 75.112 4.35193 73.9355 8.37774L73.6737 9.27372C72.4956 13.3049 71.3459 17.2359 71.2987 17.3858C71.2501 17.5383 71.1896 17.6866 71.1177 17.8293C70.8393 18.4929 70.202 18.9294 69.4898 18.9442H67.1271L66.5675 17.1075L64.1217 8.80256L63.7963 9.92227C62.6771 13.7707 61.606 17.4262 61.5507 17.5679C61.3194 18.4108 60.5446 18.9811 59.6811 18.9442L57.4231 18.9402L51.9797 0.499567H55.4195C56.2518 0.48125 56.9862 1.04714 57.1903 1.86393C57.294 2.2471 58.2703 5.46988 59.2731 8.81543L61.6739 0.498577H65.2585ZM139.021 0.498577C139.81 0.53293 140.481 1.09198 140.665 1.86888C140.767 2.22009 141.606 5.0585 142.526 8.16512L142.732 8.859L145.143 0.498577H150C150 0.498577 145.158 17.0749 145.06 17.3858C145.012 17.5383 144.951 17.6866 144.879 17.8293C144.601 18.4929 143.963 18.9294 143.251 18.9442H140.888L140.33 17.1075L137.884 8.80256L137.559 9.92227C136.439 13.7707 135.368 17.4262 135.313 17.5679C135.082 18.4108 134.307 18.9811 133.443 18.9442L131.186 18.9402L125.742 0.499567H129.181C130.014 0.48125 130.748 1.04714 130.952 1.86393C131.056 2.2471 132.032 5.46988 133.035 8.81543L135.436 0.498577H139.021ZM117.343 5.07126C116.539 5.07126 115.765 5.38698 115.188 5.95144C114.604 6.50414 114.264 7.2684 114.241 8.07483V11.5369C114.264 12.247 114.539 12.9254 115.016 13.4484C115.612 14.1311 116.468 14.5264 117.37 14.5355C118.252 14.5259 119.086 14.1288 119.652 13.4484C120.113 12.9194 120.367 12.2401 120.367 11.5369L120.373 11.5359L120.372 11.1017C120.37 10.2124 120.362 8.61355 120.362 8.07483C120.36 7.27086 120.029 6.50323 119.448 5.95144C118.886 5.39568 118.132 5.08028 117.343 5.07126ZM43.5836 5.07058C42.7797 5.07106 42.0076 5.38671 41.4308 5.95065C40.8477 6.50409 40.5055 7.26726 40.4788 8.07375V11.5353C40.5032 12.246 40.78 12.9242 41.259 13.4466C41.8562 14.129 42.713 14.524 43.6162 14.5335C44.4971 14.5238 45.3297 14.1268 45.8953 13.4466C46.3554 12.9177 46.6091 12.2385 46.6093 11.5353L46.6085 11.1002C46.606 10.2111 46.5985 8.6124 46.5985 8.07375C46.5961 7.27004 46.2662 6.50254 45.686 5.95065C45.1244 5.39487 44.371 5.0795 43.5836 5.07058ZM87.6049 5.18513H83.3034V8.84888H87.6267C88.6389 8.84286 89.4546 8.01783 89.4486 7.00612C89.4426 5.99442 88.6171 5.17914 87.6049 5.18513Z" fill="#6638B8"/>
</svg>
