<svg width="32" height="29" viewBox="0 0 32 29" fill="none" xmlns="http://www.w3.org/2000/svg">
<path fill-rule="evenodd" clip-rule="evenodd" d="M31.6674 12.8835L25.0276 1.36939C24.5004 0.554617 23.6116 0.0460785 22.6427 0.00494628H17.6922C17.6468 -0.00164876 17.6008 -0.00164876 17.5554 0.00494628H9.35531C8.38616 0.0456525 7.49764 0.556651 6.97433 1.37428L0.332572 12.8835C-0.110857 13.7469 -0.110857 14.7715 0.332572 15.6349L6.97628 27.1549C7.49939 27.9726 8.38638 28.4854 9.35531 28.5301H22.6427C23.6124 28.486 24.5002 27.9732 25.0237 27.1549L31.6674 15.6349C32.1109 14.7715 32.1109 13.7469 31.6674 12.8835ZM24.2011 1.84866L26.626 6.05447L22.378 13.3325L19.5974 8.56524C19.5121 8.41933 19.3559 8.32962 19.187 8.32952H13.6679L17.8944 0.958589H22.6427C23.2693 1.00086 23.8421 1.3281 24.1972 1.8467L24.2011 1.84866ZM16.3019 13.8205L13.6542 9.28218H18.9154L21.5651 13.8196L16.3019 13.8205ZM15.4372 14.2812L12.8198 18.7697L10.1926 14.2597L12.8091 9.77123L15.4372 14.2812ZM16.2745 14.7801H21.5084L18.9086 19.2411H13.6542L16.2745 14.7801ZM7.80577 1.84866C8.16003 1.33278 8.73125 1.00827 9.35531 0.96837H16.7894L12.5677 8.32952H4.0677L7.80577 1.84866ZM1.16206 13.3628L3.51374 9.28218H11.9884L9.22342 14.0171C9.13615 14.166 9.13615 14.3505 9.22342 14.4993L11.9884 19.2402H3.51374L1.15913 15.1635C0.885295 14.5956 0.885295 13.9336 1.15913 13.3657L1.16206 13.3628ZM9.35531 27.5726C8.72678 27.5278 8.15366 27.1964 7.80088 26.6737L4.06086 20.1938H12.5355L16.7992 27.5726H9.35531ZM24.1962 26.6737C23.8436 27.1961 23.2709 27.5275 22.6427 27.5726H17.9052L13.6405 20.1909H19.1802C19.3491 20.1908 19.5052 20.1011 19.5905 19.9552L22.3496 15.229L26.5918 22.5236L24.1962 26.6737ZM30.8399 15.1537L27.1448 21.5661L22.9183 14.2939L27.179 7.00322L30.8467 13.3608C31.1206 13.9287 31.1206 14.5907 30.8467 15.1586" fill="#4B5563"/>
</svg>
