<svg width="16" height="16" viewBox="0 0 16 16" fill="none" xmlns="http://www.w3.org/2000/svg">
<path fill-rule="evenodd" clip-rule="evenodd" d="M7.70607 11.266C7.79433 11.3091 7.89393 11.3333 8 11.3333C8.14727 11.3333 8.28378 11.2849 8.39442 11.2033C8.42232 11.1836 8.44879 11.162 8.47349 11.1386L11.8068 7.80526C12.0668 7.5386 12.0668 7.1186 11.8068 6.8586C11.5402 6.5926 11.1202 6.5926 10.8602 6.85926L8.66667 9.05787V2.66667C8.66667 2.29333 8.36667 2 8 2C7.62667 2 7.33333 2.29333 7.33333 2.66667V9.05755L5.14016 6.85926C4.87349 6.59326 4.45349 6.59326 4.19349 6.85993C3.92682 7.11993 3.92682 7.53993 4.19349 7.8066L7.52682 11.1399C7.57806 11.1912 7.63902 11.2339 7.70607 11.266ZM14 12.6667C14 13.7667 13.1 14.6667 12 14.6667H4C2.89333 14.6667 2 13.7667 2 12.6667V11.3333C2 10.96 2.29333 10.6667 2.66667 10.6667C3.03333 10.6667 3.33333 10.96 3.33333 11.3333V12.6667C3.33333 13.0333 3.62667 13.3333 4 13.3333H12C12.3667 13.3333 12.6667 13.0333 12.6667 12.6667V11.3333C12.6667 10.96 12.96 10.6667 13.3333 10.6667C13.7 10.6667 14 10.96 14 11.3333V12.6667Z" fill="#808187"/>
</svg>
