<svg stroke="#ffffff" stroke-width="2px" height="20px" width="20px" version="1.1" xmlns="http://www.w3.org/2000/svg" xmlns:xlink="http://www.w3.org/1999/xlink" viewBox="-2 -2 61.201 61.201" xml:space="preserve"><path d="M56.6,58.201h-24v-24h24V58.201z M34.6,56.201h20v-20h-20V56.201z"/><rect x="43.6" y="35.201" width="2" height="16"/><polygon points="44.6,52.615 37.893,45.908 39.307,44.494 44.6,49.787 49.893,44.494 51.307,45.908 "/><g><path d="M29.6,33.053c-0.134,0.004-0.259,0.013-0.394,0.017c-0.87,0.027-1.74,0.041-2.606,0.041c-0.869,0-1.742-0.014-2.614-0.042c-7.341-0.201-13.191-1.238-17.403-2.717C4.604,29.685,2.909,28.899,1.6,28v7.111v0.5v0.5V37.4c2.846,2.971,12.394,5.711,25,5.711c1.024,0,2.019-0.024,3-0.059V33.053z"/></g><path d="M1.6,14.889V22v0.5V23v1.289c2.638,2.754,11.033,5.31,22.286,5.668c0.115,0.004,0.233,0.005,0.349,0.008c0.326,0.009,0.651,0.018,0.982,0.023C25.674,29.996,26.135,30,26.6,30s0.926-0.004,1.383-0.011c0.33-0.005,0.656-0.014,0.982-0.023c0.116-0.003,0.234-0.005,0.349-0.008c11.253-0.359,19.648-2.915,22.286-5.668V23v-0.5V22v-7.111C46.733,18.232,36.444,20,26.6,20S6.468,18.232,1.6,14.889z"/><path d="M51.465,8.542C50.343,4.241,41.715,0,26.6,0C11.523,0,2.904,4.22,1.747,8.51C1.662,8.657,1.6,8.818,1.6,9v0.5v1.806C4.437,14.267,13.917,17,26.6,17s22.164-2.733,25-5.694V9.5V9C51.6,8.832,51.544,8.681,51.465,8.542z"/><g><path d="M29.6,46.148c-0.977,0.031-1.97,0.052-3,0.052c-12.346,0-20.866-2.29-25-5.201v8.201c0,0.162,0.043,0.315,0.117,0.451c1.181,4.895,11.747,8.549,24.883,8.549c1.019,0,2.015-0.029,3-0.072V46.148z"/></g></svg>
